<?xml version="1.0" encoding="UTF-8"?><svg id="Capa_2" xmlns="http://www.w3.org/2000/svg" viewBox="0 0 978.56 153.69"><defs><style>.cls-1{fill:#009245;}.cls-2{fill:#fff;}.cls-3{fill:#2470bc;}.cls-4{fill:#16437a;}</style></defs><g id="Capa_1-2"><g><g><path class="cls-4" d="M216.94,111.06V44.73h50.26v14.83h-30.9v10.81h27.09v15.04h-27.09v10.81h30.9v14.83h-50.26Z"/><path class="cls-4" d="M278.52,111.06V44.73h18.85l16.48,33.68,16.38-33.68h18.75V111.06h-19.36v-33.16l-10.61,21.83h-10.4l-10.71-21.83v33.16h-19.36Z"/><path class="cls-4" d="M363.39,111.06V44.73h34.19c5.42,0,9.9,1.08,13.44,3.24,3.54,2.16,6.16,5.1,7.88,8.81,1.72,3.71,2.58,7.83,2.58,12.36s-1,8.82-2.99,12.46c-1.99,3.64-4.81,6.49-8.45,8.55-3.64,2.06-7.93,3.09-12.87,3.09h-14.42v17.82h-19.36Zm19.36-32.65h9.99c3.02,0,5.27-.86,6.75-2.57,1.48-1.72,2.21-3.95,2.21-6.69,0-2.95-.69-5.29-2.06-7-1.37-1.72-3.5-2.57-6.39-2.57h-10.51v18.85Z"/><path class="cls-4" d="M463.61,112.09c-10.99,0-19.38-2.68-25.18-8.03-5.8-5.36-8.7-14.01-8.7-25.95,0-8.24,1.3-14.88,3.91-19.93,2.61-5.05,6.44-8.72,11.48-11.02,5.05-2.3,11.21-3.45,18.49-3.45s13.44,1.15,18.49,3.45c5.05,2.3,8.87,5.97,11.48,11.02,2.61,5.05,3.91,11.69,3.91,19.93,0,11.95-2.92,20.6-8.75,25.95-5.84,5.36-14.21,8.03-25.13,8.03Zm0-16.48c4.94,0,8.53-1.39,10.76-4.17,2.23-2.78,3.35-7.23,3.35-13.34,0-6.52-1.12-11.14-3.35-13.85-2.23-2.71-5.82-4.07-10.76-4.07s-8.53,1.36-10.76,4.07c-2.23,2.71-3.35,7.33-3.35,13.85,0,6.11,1.12,10.56,3.35,13.34,2.23,2.78,5.82,4.17,10.76,4.17Z"/><path class="cls-4" d="M519.12,111.06l-15.45-66.33h18.95l7.52,35.12,7.31-25.13v-9.99h15.86l10.09,35.22,7.93-35.22h18.95l-15.35,66.33h-17.51l-9.99-34.3-10.81,34.3h-17.51Z"/><path class="cls-4" d="M602.65,111.06V44.73h50.26v14.83h-30.9v10.81h27.09v15.04h-27.09v10.81h30.9v14.83h-50.26Z"/><path class="cls-4" d="M664.24,111.06V44.73h34.5c5.42,0,9.87,1,13.34,2.99,3.47,1.99,6.06,4.76,7.78,8.29,1.72,3.54,2.58,7.64,2.58,12.31s-1.12,8.39-3.35,11.79c-2.23,3.4-5.2,5.99-8.91,7.78,.75,.62,1.41,1.36,1.96,2.21,.55,.86,1.17,2.04,1.85,3.55l7.62,17.41h-20.19l-7-15.96c-.55-1.24-1.22-2.11-2.01-2.63-.79-.51-1.91-.77-3.35-.77h-5.46v19.36h-19.36Zm19.36-34.19h10.2c2.81,0,5-.74,6.54-2.21,1.54-1.48,2.32-3.59,2.32-6.33,0-5.83-2.75-8.75-8.24-8.75h-10.81v17.3Z"/><g><path class="cls-2" d="M735.41,111.06V44.73h16.38l18.02,36.77,17.92-36.77h16.27V111.06h-16.58v-38.11l-13.08,26.78h-9.17l-13.18-26.78v38.11h-16.58Z"/><path class="cls-3" d="M804.5,111.56h-17.58v-36.45l-12.27,25.12h-9.79l-.14-.28-12.24-24.85v36.46h-17.58V44.23h17.19l.14,.28,17.57,35.85,17.61-36.13h17.09V111.56Zm-16.58-1h15.58V45.23h-15.46l-18.23,37.41-18.34-37.41h-15.56V110.56h15.58v-39.76l14,28.43h8.54l13.89-28.44v39.77Z"/></g><g><path class="cls-2" d="M819.66,111.06V44.73h16.58V111.06h-16.58Z"/><path class="cls-3" d="M836.74,111.56h-17.58V44.23h17.58V111.56Zm-16.58-1h15.58V45.23h-15.58V110.56Z"/></g><g><path class="cls-2" d="M851.89,111.06V44.73h14.21l28.22,39.65V44.73h16.69V111.06h-14.32l-28.22-39.55v39.55h-16.58Z"/><path class="cls-3" d="M911.51,111.56h-15.07l-27.46-38.49v38.49h-17.58V44.23h14.97l27.46,38.59V44.23h17.69V111.56Zm-14.56-1h13.56V45.23h-15.69v40.72l-28.98-40.72h-13.46V110.56h15.58v-40.61l28.98,40.61Z"/></g><g><path class="cls-2" d="M942.01,111.06V57.5h-19.47v-12.77h55.51v12.77h-19.47v53.56h-16.58Z"/><path class="cls-3" d="M959.09,111.56h-17.58V58h-19.47v-13.77h56.51v13.77h-19.47v53.56Zm-16.58-1h15.58V57h19.47v-11.77h-54.51v11.77h19.47v53.56Z"/></g></g><g><path class="cls-4" d="M152.9,58.04c-14.27,1.19-23.45-2.18-34.8-7.03-5.96-2.75-16.13-8.07-22.77-9.63-15.74-2.64-30.31,4.02-46.01,.78-4.23-.82-8.46-1.65-11.35-4.85,.28-5.48,7.04-6.35,11.37-7.35,9.88-1.56,18.86-2.73,28.49-3.17l-14.47-6.03c-15.42-3.96-28.07,6.03-41.35,12.42-.98,.49-1.61,.83-2.59,1.32-5.9,2.46-12.78,6.89-18.68,3.44-.98-.98-.98-2.95,0-4.43C15.98,17.3,34.17,5.49,56.29,1.56c22.62-3.93,44.74-.49,64.4,10.82,17.21,10.32,27.42,27.16,32.21,45.66Z"/><path class="cls-3" d="M0,95.65c14.27-1.19,23.45,2.18,34.8,7.03,5.96,2.75,16.13,8.07,22.77,9.63,15.74,2.64,30.31-4.02,46.01-.78,4.23,.82,8.46,1.65,11.35,4.85-.28,5.48-7.04,6.35-11.37,7.35-9.88,1.56-18.86,2.73-28.49,3.17l14.47,6.03c15.42,3.96,28.07-6.03,41.35-12.42,.98-.49,1.61-.83,2.59-1.32,5.9-2.46,12.78-6.89,18.68-3.44,.98,.98,.98,2.95,0,4.43-15.24,16.22-33.43,28.02-55.55,31.95-22.62,3.93-44.74,.49-64.4-10.82C15,130.98,4.78,114.14,0,95.65Z"/><path class="cls-1" d="M98.08,76.88c0,11.93-9.71,21.63-21.64,21.63s-21.63-9.7-21.63-21.63,9.7-21.64,21.63-21.64,21.64,9.71,21.64,21.64Z"/></g></g></g></svg>