<?xml version="1.0" encoding="UTF-8"?><svg id="Capa_2" xmlns="http://www.w3.org/2000/svg" viewBox="0 0 878.26 108.94"><g id="Capa_1-2"><g><g><g><path d="M92.69,15.76s-.02,0-.03,0c-.02-.02-.03-.03-.05-.03,.03,0,.05,.02,.08,.04Z"/><path d="M92.93,15.92s-.09-.08-.14-.11c0,0,0,0-.02-.02,0,0,.02,0,.03,0s.02,0,.03,.02c.02,0,.03,.03,.04,.03t.02,.02s.03,.03,.05,.05Z"/><path d="M92.99,15.98h0s-.02,0-.03-.02c0,0,.02,0,.03,.02Z"/><path d="M93.25,16.36c-.03-.06-.06-.12-.09-.17-.05-.07-.1-.14-.16-.2,.04,.03,.08,.07,.11,.1,.06,.08,.12,.17,.14,.27Z"/></g><path d="M82.62,47.75c-.04,.09-.09,.18-.14,.26-.04,.08-.09,.15-.13,.22,.09-.16,.18-.32,.28-.48Z"/><g><path d="M26.84,48.77c-.16-.24-.32-.5-.47-.75-.12-.2-.23-.39-.33-.6t.02,.02c.25,.38,.5,.79,.71,1.2,.03,.04,.05,.09,.08,.13Z"/><path d="M29.05,47.29c-.26-.39-.5-.81-.72-1.22,0-.02-.02-.03-.03-.04-.02-.04-.04-.08-.08-.13,.02,.03,.03,.04,.05,.07,0,0,0,0,0,.02,.14,.22,.29,.44,.42,.66,.12,.21,.24,.42,.34,.64Z"/></g><path d="M24.29,41.83v.03h0s.02,.02,.02,.02c0-.02,0-.03,0-.05Zm0,0v.03h0s.02,.02,.02,.02c0-.02,0-.03,0-.05Zm0,0v.03h0s.02,.02,.02,.02c0-.02,0-.03,0-.05Zm0,0v.03h0s.02,.02,.02,.02c0-.02,0-.03,0-.05Zm0,0v.03h0s.02,.02,.02,.02c0-.02,0-.03,0-.05Zm17.22-17.51c.13,0,.25,.02,.37,.04h0c-.12-.03-.24-.04-.37-.04Zm-13.22,21.67s0,0,0-.02c-.02-.03-.03-.04-.05-.07,.03,.04,.06,.08,.08,.13,0,0,0-.03-.02-.04Zm-3.99-4.16v.03h0s.02,.02,.02,.02c0-.02,0-.03,0-.05Zm-6.08-2.52h0c.09,.02,.18,.03,.28,.06-.09-.03-.18-.04-.28-.06Zm6.08,2.52v.03h0s.02,.02,.02,.02c0-.02,0-.03,0-.05Zm0,0v.03h0s.02,.02,.02,.02c0-.02,0-.03,0-.05Zm0,0v.03h0s.02,.02,.02,.02c0-.02,0-.03,0-.05Zm0,0v.03h0s.02,.02,.02,.02c0-.02,0-.03,0-.05Z"/><g><path d="M26.77,60.31c-.23,.44-.47,.86-.74,1.24,.22-.42,.46-.84,.74-1.24Z"/><path d="M29.05,61.65s-.02,.05-.03,.08c-.1,.19-.21,.39-.32,.57-.1,.18-.22,.35-.34,.53,0,.03-.03,.05-.05,.08,0-.03,.03-.04,.03-.07,.22-.4,.45-.8,.71-1.18Z"/></g><path d="M16.05,93.01s-.07-.07-.11-.1h0s.03,.02,.04,.03c0,0,0,0,.02,0,0,.03,.03,.05,.05,.07Z"/><g><path d="M80.59,63.01c-.16-.23-.3-.45-.44-.69-.11-.18-.22-.37-.31-.56-.03-.05-.06-.11-.08-.17,0,.02,.02,.03,.03,.03,.29,.39,.52,.82,.75,1.24,.02,.04,.03,.09,.06,.14Z"/><path d="M82.06,60.28h0s-.03-.05-.03-.07c.02,.02,.03,.04,.04,.07Z"/><path d="M82.84,61.6s0,0,0,.02c0,0,0-.02-.02-.02-.27-.4-.51-.82-.72-1.25,.03,.02,.04,.04,.05,.07,.12,.18,.24,.35,.34,.54,.13,.21,.24,.43,.35,.65Z"/></g><g><path d="M66.48,89.35c.16,.46,.29,.93,.4,1.41-.1-.48-.24-.95-.4-1.41Zm3.01,.93c.03,.16,.07,.31,.09,.47h0c-.03-.16-.06-.31-.1-.47Zm23.42,2.67s-.03,.04-.05,.06c-.02,.02-.03,.03-.03,.04,.03-.04,.09-.09,.15-.15-.02,.02-.04,.03-.07,.05Zm-10.02-31.26s.03,.05,.04,.08c0,.02,.02,.03,.03,.04,.07,.08,.13,.17,.18,.24-.08-.12-.17-.24-.25-.36Zm1.66,5.42h0s.03,.03,.04,.03c-.02,0-.03-.03-.04-.03Zm-17.6,17.46s0,0,0,0c.03,0,.07,0,.1,0-.03,0-.08,0-.11-.02Z"/><path d="M93.1,16.09c.06,.08,.12,.17,.14,.27-.03-.06-.06-.12-.09-.17-.05-.07-.1-.14-.16-.2,0,0-.02-.02-.03-.03,0-.02-.03-.03-.04-.04-.04-.04-.09-.08-.14-.11,0,0,0,0-.02-.02,0,0,.02,0,.03,0-5.1-5.08-11.02-9.02-17.48-11.68C68.79,1.42,61.74,0,54.46,0h-.06C39.87,.02,26.21,5.68,15.94,15.96c.13-.13,.28-.22,.43-.29-.16,.07-.3,.17-.43,.29C5.89,26.03,.24,39.38,.03,53.59v.1c0,.3,.1,.57,.28,.79H.3c-.18,.23-.28,.5-.28,.8v.18s0,.04,0,.06c.26,14,5.81,27.15,15.64,37.11h0c.13,.29,.35,.51,.63,.64,9.78,9.61,22.67,15.14,36.36,15.58,.03,0,.08,0,.12,0h.03c.55,.02,1.09,.03,1.64,.03s1.05,0,1.55-.03h.04s.08,0,.11,0c13.71-.41,26.62-5.92,36.41-15.54,.08-.07,.14-.13,.21-.21h.02s.03-.03,.03-.03c0-.02,.02-.03,.03-.04,.02-.02,.03-.03,.05-.06,.03-.02,.05-.03,.07-.05,.02-.02,.03-.04,.05-.06,.09-.08,.18-.17,.25-.25,4.97-5.05,8.84-10.91,11.48-17.28,2.7-6.49,4.12-13.51,4.13-20.74v-.13c0-14.47-5.6-28.08-15.79-38.35Zm.28,4.18c6.14,6.99,10.23,15.37,11.95,24.39-.09-.12-.19-.23-.29-.34t-.02-.02c-.18-.2-.35-.4-.54-.59-.24-.24-.49-.48-.74-.71-.13-.11-.25-.23-.39-.33-.05-.04-.09-.08-.14-.12-.14-.13-.29-.24-.45-.35-.31-.24-.63-.46-.97-.67-.15-.1-.31-.2-.47-.29-.18-.1-.35-.2-.54-.3-.46-.26-.94-.49-1.44-.69-.21-.08-.42-.17-.63-.24-.18-.07-.35-.13-.53-.18-.07-.03-.13-.05-.21-.07-.21-.07-.42-.13-.64-.18-.02,0-.03,0-.06-.02-.19-.05-.39-.09-.58-.13-.11-.03-.23-.05-.34-.07-.15-.03-.3-.06-.45-.08-.11-.02-.22-.03-.33-.04-.02,0-.03,0-.05,0-.16-.03-.33-.04-.5-.06-.23-.03-.46-.05-.69-.06-.29-.02-.59-.03-.88-.03h-.08V20.27Zm-.69-4.5s-.02,0-.03,0c-.02-.02-.03-.03-.05-.03,.03,0,.05,.02,.08,.04Zm-12.65,13.09c-.6-.6-1.25-1.16-1.94-1.65-.19-.13-.39-.27-.59-.39-.03-.03-.06-.05-.09-.06-.13-.09-.25-.17-.38-.24-.92-.56-1.9-1.02-2.91-1.37-.49-.18-.97-.32-1.47-.44-.4-.1-.82-.18-1.23-.24-.16-.03-.34-.06-.5-.08-.02,0-.03,0-.05,0-.06-.02-.12-.02-.18-.03-.13-.02-.25-.03-.38-.04-.13,0-.25-.03-.38-.03-.04,0-.08,0-.13,0-.13,0-.28-.02-.41-.03-.18,0-.36,0-.55,0l-1.89,.12h0c.16-.23,.32-.46,.47-.7,.6-.95,1.11-1.97,1.49-3.02,.05-.15,.1-.29,.15-.45,0-.02,0-.03,.02-.05,.05-.14,.09-.28,.13-.43,0-.02,0-.04,.02-.06,0,0,0-.02,0-.03,.05-.18,.1-.38,.15-.57,.02-.05,.03-.09,.03-.14,.05-.23,.1-.45,.14-.68h21.15v21.11c-.21,.03-.43,.08-.64,.13-.22,.04-.44,.1-.66,.16-.06,.02-.13,.03-.19,.05-.15,.04-.31,.09-.46,.14,0,0-.03,0-.03,0-.03,0-.04,.02-.07,.03-.12,.04-.24,.08-.35,.12h0c-.25,.09-.5,.18-.74,.28-.13,.06-.28,.12-.41,.18-.16,.07-.31,.14-.47,.22-.21,.1-.4,.2-.6,.31-.25,.13-.5,.29-.75,.44-.24,.15-.49,.31-.72,.48-.03,.02-.05,.03-.08,.05,.08-.63,.12-1.27,.12-1.92,0-4.21-1.65-8.17-4.62-11.15ZM27.93,45.24c-.06-.13-.12-.27-.16-.4-.06-.13-.11-.26-.15-.39-.08-.23-.16-.45-.23-.68-.16-.5-.28-1-.36-1.5-.04-.25-.08-.5-.11-.76-.03-.25-.06-.51-.07-.76-.02-.24-.03-.5-.03-.75,0-.43,.02-.85,.06-1.28,.04-.42,.1-.84,.18-1.25,.08-.42,.18-.83,.31-1.24,.12-.4,.26-.81,.43-1.2,.12-.29,.25-.59,.39-.87,.14-.29,.29-.57,.46-.85,.22-.37,.46-.73,.72-1.08,.14-.2,.3-.39,.46-.59,.1-.12,.2-.24,.31-.36,.17-.18,.34-.37,.52-.55,2.48-2.48,5.77-3.84,9.28-3.84,2.27,0,4.5,.59,6.47,1.71,.09,.05,.18,.11,.28,.16,.03,.02,.05,.03,.08,.05,.88,.54,1.71,1.18,2.44,1.92l3.32,3.32-18.54,18.55-3.32-3.32c-.6-.6-1.13-1.24-1.6-1.93,0-.02-.03-.03-.03-.04,0,0,0,0,0-.02-.26-.39-.5-.81-.72-1.22,0-.02-.02-.03-.03-.04-.02-.04-.04-.08-.08-.13,.02,.03,.03,.04,.05,.07-.13-.24-.24-.48-.34-.72Zm24.62,29.64h0s-3.32,3.32-3.32,3.32c-.74,.75-1.56,1.39-2.44,1.93-.03,0-.04,.03-.07,.04h0c-.08,.05-.17,.1-.26,.15,0,0-.02,0-.02,.02-.02,0-.03,.02-.04,.02-.02,0-.03,.02-.04,.03,0,0,0,0-.02,0,0,0,0,0,0,0,0,0,0,0,0,0-.03,.02-.05,.03-.08,.04-.04,.03-.08,.05-.13,.07-.04,.03-.09,.05-.13,.07-.03,.03-.07,.04-.1,.05-.15,.08-.31,.16-.47,.23-.15,.08-.29,.13-.45,.19-.03,.02-.06,.03-.09,.03-.09,.05-.18,.08-.28,.11-.08,.03-.16,.06-.24,.08t-.02,0s-.03,.02-.03,.02c-.03,.02-.07,.03-.1,.03-.13,.05-.24,.08-.37,.12,0,0-.02,0-.03,0-.18,.07-.38,.12-.56,.16-.13,.04-.28,.08-.41,.09-.12,.03-.24,.06-.36,.08,0,0-.02,0-.03,0-.26,.05-.53,.09-.8,.13-.81,.1-1.61,.13-2.42,.08-.26,0-.52-.03-.77-.07-.24-.03-.47-.06-.7-.1-.05,0-.09,0-.13-.03-.24-.03-.46-.08-.7-.14-.25-.06-.5-.13-.75-.2-.25-.08-.5-.16-.74-.25-.18-.06-.36-.13-.54-.21-.12-.04-.24-.09-.34-.15-.92-.41-1.8-.93-2.61-1.57-.18-.13-.34-.27-.51-.42-.13-.1-.24-.21-.37-.33-.12-.11-.24-.23-.36-.34-2.48-2.47-3.84-5.76-3.84-9.27,0-.45,.03-.9,.08-1.34,0-.11,.02-.22,.03-.33,.09-.76,.26-1.52,.5-2.25,.06-.21,.13-.43,.21-.64,.09-.26,.2-.51,.31-.76,.08-.19,.17-.39,.26-.57,0-.02,.02-.03,.03-.04,0,0,0-.02,.02-.03,0-.03,.03-.04,.03-.07,0-.03,.03-.04,.03-.07,.22-.4,.45-.8,.71-1.18,0,0,0-.02,.02-.03h0s0-.03,.02-.03c.47-.69,1-1.34,1.6-1.93l3.32-3.32,18.54,18.54Zm-16.67-20.42l18.54-18.55h0l18.54,18.55-18.54,18.55h0l-18.54-18.55Zm38.97,1.87l3.32,3.32c.58,.58,1.11,1.21,1.56,1.88,0,.02,.02,.03,.03,.05,0,.02,.02,.03,.03,.03,.29,.39,.52,.82,.75,1.24,.02,.04,.03,.09,.06,.14,0,.03,.03,.04,.03,.07,.08,.16,.16,.32,.23,.49,.04,.08,.08,.17,.11,.25,.18,.4,.33,.81,.45,1.22,.03,.07,.04,.13,.06,.19,.02,.04,.03,.08,.03,.11,.03,.11,.06,.21,.08,.32,0,.03,.02,.06,.02,.08,.03,.12,.07,.24,.08,.35,.05,.2,.09,.4,.13,.6,.03,.18,.06,.37,.08,.56,.02,.14,.03,.29,.04,.43,.09,.84,.08,1.68,0,2.51-.04,.42-.1,.84-.18,1.26-.09,.46-.21,.92-.36,1.38-.11,.36-.24,.71-.38,1.06-.64,1.57-1.6,3.04-2.87,4.3-2.48,2.48-5.77,3.85-9.28,3.85-.25,0-.5,0-.75-.03-.08,0-.17,0-.25-.02-.19,0-.39-.03-.57-.06-.07,0-.14,0-.21-.03-.11,0-.22-.03-.33-.05-.18-.03-.34-.06-.51-.09-.03,0-.06,0-.08-.02-.13-.03-.27-.06-.4-.09,0,0-.02,0-.03,0-.11-.03-.22-.05-.32-.08-.18-.04-.37-.1-.55-.16-.14-.04-.29-.09-.44-.15-.44-.15-.87-.34-1.29-.54-.24-.12-.48-.24-.71-.37,0,0,0,0,0,0,0,0-.02,0-.03-.02-.1-.06-.19-.12-.31-.18,0,0-.02-.02-.03-.02-.88-.54-1.71-1.19-2.46-1.94l-3.31-3.31,18.54-18.55Zm-18.55-22.3l3.32-3.32c.56-.56,1.17-1.07,1.81-1.51,.2-.14,.4-.28,.61-.4,.02,0,.03-.02,.04-.03,.02,0,.03-.02,.05-.03,.08-.05,.16-.1,.24-.14,0,0,0,0,.02-.02,.03,0,.05-.03,.08-.04,0,0,.02,0,.03-.02,.24-.13,.46-.25,.71-.36,.24-.13,.5-.24,.75-.33,.03-.02,.04-.03,.07-.03,.18-.08,.37-.14,.56-.2,.1-.04,.19-.08,.29-.1,.24-.08,.47-.15,.71-.21,.4-.11,.81-.19,1.22-.25,.18-.03,.36-.06,.55-.08,.25-.03,.5-.06,.76-.07,3.65-.22,7.34,1.1,10.06,3.81,2.48,2.48,3.84,5.77,3.84,9.28,0,.23,0,.45-.02,.68,0,.13-.02,.26-.03,.39,0,.11,0,.21-.03,.32-.02,.15-.03,.31-.06,.46-.03,.21-.06,.42-.1,.63-.1,.54-.24,1.08-.42,1.6-.02,.07-.03,.13-.07,.2-.03,.14-.09,.28-.15,.42-.02,.05-.03,.1-.06,.16-.2,.5-.44,.99-.7,1.47h0s-.03,.05-.03,.07t0,.02s-.03,.03-.03,.04h0s-.02,.03-.03,.05h0c-.06,.11-.13,.23-.2,.34-.03,.03-.05,.08-.07,.12-.02,.03-.03,.04-.04,.07-.52,.81-1.12,1.55-1.8,2.23l-3.32,3.32-18.55-18.55ZM88.69,15.58h-18.86c0-.06,0-.11,0-.17,0-.29,0-.59-.03-.88s-.04-.58-.08-.87c-.03-.23-.06-.46-.09-.68-.03-.17-.06-.34-.09-.5-.02-.08-.03-.17-.05-.24-.04-.2-.08-.39-.13-.6s-.11-.4-.17-.6c-.06-.22-.13-.43-.2-.64,0-.03-.03-.07-.03-.1-.09-.25-.19-.5-.29-.76-.11-.26-.23-.51-.34-.76-.12-.25-.24-.5-.38-.75-.13-.24-.28-.48-.42-.71-.12-.18-.24-.38-.36-.55-.08-.13-.17-.24-.25-.36-.29-.39-.58-.76-.9-1.13-.17-.19-.34-.39-.53-.57-.15-.17-.32-.33-.49-.48-.24-.23-.47-.44-.72-.65,9.04,1.73,17.43,5.83,24.42,12.01ZM54.4,2.65h.05c7.02,.02,12.73,5.75,12.73,12.76,0,.45-.02,.91-.07,1.35-.2,1.96-.87,3.84-1.92,5.48-.26,.41-.55,.81-.85,1.18-.3,.38-.63,.74-.98,1.08-.69,.68-1.45,1.28-2.29,1.79,0,0-.03,0-.03,.02,0,0,0,0,0,0,0,0-.03,.02-.03,.03s-.03,.02-.03,.02c-.06,.04-.12,.08-.18,.11-.03,.02-.06,.03-.08,.05-1.07,.65-2.07,1.44-2.97,2.33l-3.32,3.32-3.32-3.32c-.9-.9-1.9-1.69-2.98-2.34-.02,0-.03-.02-.05-.03t0,0c-.09-.05-.18-.1-.27-.15,0,0-.03-.02-.03-.03,0,0,0,0-.02,0-3.35-2.07-5.6-5.63-6.01-9.53-.05-.45-.08-.9-.08-1.35,0-7.02,5.72-12.75,12.75-12.76Zm-9.86,.94c-.17,.14-.33,.29-.49,.43-.16,.14-.31,.29-.45,.44-.04,.03-.08,.08-.13,.12-.13,.13-.24,.25-.37,.39-.05,.05-.1,.11-.16,.18-.12,.13-.24,.27-.35,.41-.21,.24-.41,.5-.6,.76-.12,.16-.23,.31-.34,.47-.02,.03-.04,.07-.07,.1-.12,.18-.24,.37-.35,.55-.25,.42-.49,.86-.71,1.3-.09,.19-.18,.39-.26,.58-.13,.28-.24,.56-.34,.86-.04,.13-.09,.25-.13,.39-.06,.17-.11,.33-.15,.5-.06,.18-.11,.38-.16,.58-.05,.18-.09,.35-.13,.54-.03,.12-.05,.24-.08,.36-.03,.13-.05,.27-.07,.4-.04,.24-.08,.48-.1,.71-.03,.29-.06,.58-.08,.87-.02,.29-.03,.59-.03,.88v.17H20.23c6.96-6.15,15.31-10.25,24.32-11.99Zm-26.34,14.64h21.06s0,.06,.02,.09c.05,.24,.1,.49,.16,.73,.03,.11,.05,.22,.08,.33,.04,.15,.08,.29,.12,.44,.02,.05,.03,.09,.05,.14,0,.03,0,.04,.02,.07,.07,.2,.13,.41,.21,.61,.02,.05,.03,.1,.05,.14h0c.03,.09,.07,.19,.11,.29,0,.05,.03,.1,.06,.15,.03,.08,.06,.15,.09,.23,.02,.04,.03,.08,.05,.11,.06,.15,.13,.29,.2,.44,.02,.04,.03,.08,.05,.12,.07,.13,.13,.28,.21,.41,.04,.09,.09,.18,.14,.27,.03,.05,.05,.1,.08,.15,.05,.09,.1,.19,.16,.28,.08,.14,.17,.29,.26,.43,0,0,0,0,0,0,.15,.24,.31,.47,.47,.7h0c-.12-.02-.24-.03-.37-.03h-.04s-.02,0-.03,0c-.17-.03-.34-.03-.51-.04-.03,0-.08,0-.11,0-.29-.02-.56-.03-.85-.03-4.22,0-8.18,1.65-11.15,4.62-3.5,3.5-5.07,8.28-4.52,12.97,0,.02,0,.03,0,.05,0,0,0-.02-.02-.02-.02-.02-.04-.03-.07-.04-.11-.08-.22-.16-.33-.23-.16-.11-.33-.22-.5-.32-.05-.03-.11-.07-.17-.1-.1-.07-.22-.13-.33-.18-.18-.1-.35-.19-.53-.28-.6-.31-1.21-.57-1.85-.79-.08-.03-.14-.05-.22-.08-.2-.07-.4-.13-.6-.18-.13-.03-.26-.07-.39-.1-.05-.03-.1-.03-.15-.04-.13-.03-.26-.07-.39-.09-.09-.03-.18-.04-.28-.06-.09-.03-.18-.04-.28-.05V18.22Zm-2.66,2.02v18.8h-.13c-.29,0-.58,0-.87,.03-.47,.03-.93,.08-1.39,.14-.18,.03-.38,.06-.56,.1-.07,0-.13,.02-.19,.03-.1,0-.19,.03-.29,.06-.02,0-.03,0-.05,.02-.18,.03-.35,.08-.53,.13h0c-.17,.03-.33,.08-.5,.13,0,0-.02,0-.03,0-.47,.14-.92,.3-1.37,.48-.18,.08-.36,.15-.54,.24-.2,.09-.39,.18-.6,.29-.64,.32-1.26,.68-1.84,1.09-.2,.13-.39,.28-.59,.43-.12,.09-.24,.18-.36,.29-.76,.61-1.47,1.3-2.1,2.06,1.73-9,5.82-17.36,11.95-24.32Zm0,68.38c-6.1-6.93-10.19-15.27-11.93-24.23,.08,.08,.14,.17,.23,.25,.16,.18,.32,.35,.48,.52,.17,.18,.34,.34,.51,.5,.34,.33,.71,.64,1.08,.93,.16,.13,.33,.25,.5,.37,.03,.03,.07,.06,.11,.08,.14,.1,.29,.2,.45,.29,.29,.2,.59,.39,.9,.55,.12,.07,.24,.13,.36,.19,.19,.11,.39,.2,.59,.29,.17,.08,.34,.17,.52,.24h0c.13,.06,.27,.12,.4,.17,.13,.05,.27,.1,.4,.15t.02,0c.28,.1,.55,.19,.83,.28,.17,.06,.34,.1,.52,.14,.09,.03,.18,.06,.29,.08,.16,.04,.33,.08,.5,.11,.07,.02,.14,.03,.21,.04,.18,.04,.37,.07,.55,.09,0,0,.03,0,.03,0,.18,.03,.38,.06,.57,.08,.03,0,.06,0,.08,0,.24,.03,.5,.05,.76,.07h.03c.29,.02,.58,.03,.87,.03h.13v18.74Zm.39,4.28h0s.03,.02,.04,.03c0,0,0,0,.02,0,0,.03,.03,.05,.05,.07-.03-.03-.07-.07-.11-.1Zm.81-25.74c-.44,.04-.88,.07-1.33,.07-.25,0-.5,0-.75-.03-.1,0-.2,0-.3-.02-.03,0-.06,0-.08,0-.05,0-.1,0-.15-.02-.42-.03-.84-.1-1.24-.18-.16-.03-.32-.07-.48-.1-.36-.08-.71-.19-1.05-.31-.18-.05-.34-.12-.51-.18-.18-.07-.34-.13-.51-.21-.13-.05-.26-.11-.39-.18-.02,0-.04-.02-.06-.03-.03-.02-.06-.03-.09-.05-.17-.08-.33-.16-.49-.25-.15-.08-.29-.16-.44-.25-.14-.08-.28-.17-.42-.26-.14-.09-.29-.18-.42-.29-.16-.11-.32-.23-.47-.35-.16-.12-.31-.24-.46-.38-.15-.13-.29-.26-.44-.39-.24-.23-.47-.46-.69-.71-.12-.12-.23-.24-.32-.37-.13-.14-.24-.29-.35-.44t-.02-.02s-.03-.03-.03-.05c-.11-.13-.2-.26-.29-.4-.15-.2-.29-.42-.42-.64-.1-.15-.19-.31-.28-.47-.09-.16-.18-.32-.25-.48-.17-.32-.31-.64-.44-.97,0,0,0-.03-.02-.03-.13-.33-.25-.66-.35-1.01-.11-.35-.2-.71-.27-1.08-.05-.2-.08-.4-.11-.6-.03-.19-.07-.39-.08-.6-.03-.19-.04-.39-.05-.59h0s0-.06,0-.08c-.02-.27-.11-.52-.27-.72,.16-.2,.25-.45,.27-.73v-.07c.02-.21,.03-.42,.05-.63,.05-.39,.11-.78,.18-1.17,.05-.22,.1-.45,.16-.66,.1-.38,.22-.76,.35-1.12h0c.13-.37,.29-.73,.45-1.08,.23-.48,.49-.94,.77-1.39,.07-.1,.13-.21,.2-.31,.15-.23,.31-.45,.49-.67,.12-.15,.24-.3,.37-.45,.17-.2,.34-.39,.53-.58,.13-.15,.28-.29,.42-.42,.18-.18,.37-.34,.55-.5,.14-.13,.28-.24,.43-.34,.22-.18,.45-.34,.67-.49,.24-.16,.47-.31,.71-.45,.32-.18,.65-.36,.98-.51,.15-.08,.3-.14,.46-.2,.24-.11,.48-.2,.72-.29,.13-.05,.29-.1,.43-.14,.14-.05,.29-.09,.44-.13,.13-.04,.26-.08,.4-.1,.16-.04,.33-.08,.49-.11,.25-.05,.5-.09,.76-.13,.14-.03,.29-.04,.43-.05,.14-.02,.29-.03,.43-.03,.29-.03,.57-.03,.87-.03,.45,0,.89,.02,1.33,.07,.42,.04,.83,.11,1.24,.19,.13,.03,.27,.05,.4,.09,.28,.06,.55,.13,.82,.23,.26,.07,.51,.16,.76,.26,.22,.08,.44,.17,.66,.27,.23,.1,.44,.2,.66,.32,.18,.09,.36,.18,.54,.29,.11,.06,.22,.13,.32,.2,.17,.09,.34,.2,.5,.32,.29,.19,.58,.41,.86,.65,.12,.09,.24,.19,.35,.3,.02,0,.03,.03,.05,.04,.09,.08,.18,.15,.26,.24,.14,.13,.28,.26,.4,.39,.15,.15,.29,.3,.42,.46,.13,.13,.24,.27,.34,.4,.23,.27,.44,.55,.63,.85,0,0,.02,0,.02,.02,0,.03,.03,.04,.04,.07,0,.02,0,.03,.03,.04t.02,.02c.25,.38,.5,.79,.71,1.2,.03,.04,.05,.09,.08,.13,.03,.04,.06,.09,.1,.13,.13,.2,.28,.39,.42,.59,.44,.59,.92,1.14,1.45,1.66l3.32,3.32-3.32,3.32c-.69,.69-1.33,1.45-1.87,2.26-.04,.04-.07,.09-.1,.13-.03,.03-.04,.06-.06,.09,0,.02-.02,.03-.02,.03-.23,.44-.47,.86-.74,1.24h0c-.03,.05-.06,.09-.08,.13h0c-.03,.05-.06,.08-.08,.12-.19,.28-.39,.54-.6,.79-.08,.09-.15,.18-.23,.27-.21,.24-.42,.47-.65,.69-.09,.1-.19,.19-.3,.29-.13,.12-.25,.24-.39,.34-.18,.15-.35,.3-.54,.44-.18,.14-.38,.28-.56,.4-.17,.12-.34,.24-.52,.34-.37,.23-.75,.44-1.14,.62-.09,.05-.19,.09-.29,.13-.16,.08-.33,.14-.5,.21-.22,.09-.43,.18-.65,.24-.23,.08-.46,.14-.69,.21-.22,.06-.44,.11-.66,.16-.45,.1-.92,.18-1.39,.23Zm1.46,2.45c.08,0,.18-.03,.26-.05t.02,0c.11-.02,.22-.04,.33-.07,.02,0,.03,0,.05-.02,.13-.03,.27-.06,.4-.1,.27-.06,.53-.13,.79-.22,.19-.06,.39-.12,.57-.19,.19-.07,.39-.14,.58-.22,.15-.06,.3-.13,.45-.19,.2-.08,.39-.18,.59-.28,.02,0,.04-.02,.06-.03,.2-.1,.39-.2,.59-.31,.24-.13,.48-.28,.71-.42,.24-.15,.46-.3,.69-.46-.07,.62-.11,1.24-.11,1.87,0,4.21,1.64,8.17,4.62,11.14,1.13,1.13,2.41,2.08,3.79,2.8,.45,.24,.92,.45,1.39,.65,.48,.19,.96,.36,1.45,.51,.18,.06,.37,.11,.55,.15,.17,.04,.34,.08,.5,.12,.28,.07,.55,.12,.83,.17,.03,0,.06,0,.08,.02,.28,.04,.55,.08,.84,.11,.18,.02,.38,.04,.57,.05,.18,.02,.38,.03,.57,.03,.18,0,.38,0,.57,0,.08,0,.18,0,.26,0,.24,0,.46,0,.7-.03,.06,0,.12,0,.18-.02h.05c.24-.02,.48-.04,.72-.07h0c-.16,.24-.32,.47-.47,.71-.16,.25-.31,.5-.46,.76-.24,.45-.48,.92-.68,1.39-.04,.08-.08,.18-.12,.28-.04,.11-.08,.22-.13,.33-.05,.11-.08,.23-.13,.34-.04,.12-.08,.23-.12,.34-.06,.18-.12,.35-.17,.54,0,.02,0,.03-.02,.05,0,0,0,.02,0,.03-.04,.15-.08,.3-.12,.45-.03,.1-.05,.2-.07,.3-.03,.08-.05,.18-.06,.26-.03,.13-.06,.26-.08,.39H18.21v-21.13Zm2.13,23.78h18.67v.13c0,.29,0,.56,.03,.84,0,.24,.03,.49,.05,.72,.02,.16,.03,.31,.06,.46,0,.08,.02,.17,.03,.24,0,.09,.03,.18,.04,.27,.02,.09,.03,.18,.05,.27,.03,.2,.08,.4,.12,.6,.04,.18,.08,.37,.14,.55,.02,.1,.04,.19,.08,.29,.02,.08,.04,.15,.07,.23,.05,.18,.11,.35,.17,.53,.09,.26,.18,.52,.29,.78,0,.03,.02,.04,.03,.07,.09,.22,.18,.43,.28,.64,.02,.03,.03,.07,.05,.1,.08,.17,.16,.34,.25,.5,.06,.13,.13,.25,.19,.37,.2,.36,.41,.71,.65,1.06,.11,.17,.22,.34,.34,.5,.12,.17,.24,.34,.37,.5,.12,.16,.25,.32,.38,.47,.15,.18,.31,.36,.48,.54,.39,.42,.8,.82,1.24,1.19-8.89-1.75-17.17-5.8-24.05-11.84Zm43.6,8.64c-.14,.16-.29,.32-.45,.47-.26,.27-.54,.53-.83,.77-.02,.02-.04,.03-.06,.05-.03,.03-.06,.05-.09,.08-.02,.02-.03,.03-.05,.04-.08,.06-.15,.12-.23,.18-.15,.12-.3,.23-.45,.34-.13,.1-.27,.19-.41,.29,0,0-.02,0-.03,.02-.24,.15-.49,.3-.74,.44-.25,.14-.5,.28-.77,.39-.17,.08-.34,.16-.51,.23-.66,.27-1.35,.5-2.06,.65-.13,.03-.26,.07-.39,.08-.03,0-.06,0-.08,.02-.04,0-.09,.02-.13,.03-.12,.03-.24,.04-.35,.06-.12,.02-.23,.03-.34,.05h-.05c-.47,.02-.94,.02-1.45,.02s-1,0-1.5-.02h-.05s-.03,0-.05,0h-.03c-.15-.03-.31-.04-.46-.08-.19-.03-.39-.07-.59-.11-.19-.03-.39-.08-.58-.13-.12-.03-.23-.06-.34-.1-.13-.03-.28-.08-.41-.13-.13-.03-.25-.08-.37-.13-.18-.06-.37-.13-.55-.21-.36-.14-.71-.3-1.04-.49-.17-.08-.34-.18-.5-.28-.13-.08-.27-.15-.39-.24-.11-.07-.21-.13-.31-.21-.1-.06-.19-.13-.29-.19-.07-.04-.13-.09-.19-.13-.19-.15-.39-.3-.57-.45-.19-.17-.39-.34-.58-.52-.18-.18-.37-.35-.54-.55-.13-.13-.25-.27-.37-.41-.2-.23-.39-.47-.57-.71-.08-.12-.17-.24-.25-.35-.05-.07-.09-.13-.13-.2-.03-.03-.04-.05-.06-.08-.02-.03-.03-.06-.05-.08-.37-.57-.69-1.18-.97-1.82-.02-.03-.03-.08-.04-.11-.06-.13-.11-.25-.16-.39-.07-.17-.12-.34-.18-.5-.03-.08-.06-.17-.08-.25-.07-.2-.13-.41-.18-.62,0-.02,0-.03,0-.05-.07-.24-.12-.48-.17-.72-.04-.23-.08-.45-.11-.68-.02-.12-.03-.24-.04-.35,0-.1-.03-.21-.03-.31-.02-.13-.03-.28-.03-.41,0-.22-.02-.44-.02-.66,0-.44,.03-.88,.07-1.31,.03-.24,.06-.49,.1-.73,.03-.22,.08-.44,.12-.65,.11-.5,.25-.99,.42-1.47,.05-.15,.1-.3,.17-.45,.05-.15,.12-.3,.18-.45,.07-.16,.13-.31,.21-.46,.1-.22,.22-.44,.34-.65,.11-.21,.24-.42,.36-.62,.13-.21,.27-.41,.41-.61,.28-.39,.58-.76,.9-1.13,.66-.74,1.41-1.4,2.23-1.97,.18-.13,.37-.25,.55-.37,0,0,.03,0,.03-.02,0,0,.02,0,.03,0,.02-.02,.04-.03,.06-.04,.08-.03,.14-.08,.22-.13,.03-.02,.06-.03,.08-.05h0c1.07-.66,2.07-1.44,2.96-2.34l3.32-3.31,3.32,3.31c.9,.9,1.89,1.68,2.97,2.34,0,0,0,0,0,0,.03,.02,.07,.03,.1,.05,.07,.04,.13,.08,.19,.12,0,0,.02,0,.03,0,0,0,.03,.02,.03,.03s.02,0,.03,.02c.21,.13,.42,.26,.62,.41,.39,.27,.78,.57,1.13,.88,.13,.13,.27,.24,.4,.38,.05,.04,.11,.1,.15,.15,.03,.03,.06,.05,.08,.08,.08,.08,.17,.17,.24,.25,.03,.03,.04,.04,.06,.07,.13,.13,.26,.27,.36,.41,.13,.13,.24,.28,.34,.42,.18,.21,.34,.43,.48,.66,.16,.23,.3,.45,.44,.69,.1,.15,.19,.31,.27,.48,.16,.29,.31,.6,.44,.9,.07,.14,.13,.29,.18,.43,.08,.17,.13,.34,.19,.5,.17,.46,.3,.93,.4,1.41,.11,.48,.18,.96,.24,1.45,.05,.43,.07,.87,.07,1.31s-.02,.85-.07,1.27c0,.16-.03,.31-.05,.47-.03,.18-.05,.34-.08,.52-.02,.12-.04,.24-.07,.35-.02,.11-.05,.23-.08,.34-.04,.19-.09,.38-.15,.56-.03,.14-.08,.29-.13,.43,0,0,0,.03,0,.03-.04,.12-.08,.23-.13,.34-.03,.1-.07,.2-.11,.29-.06,.18-.13,.36-.22,.54-.08,.18-.15,.35-.24,.52-.08,.17-.17,.34-.27,.5-.08,.17-.18,.34-.29,.5-.17,.28-.35,.55-.55,.82-.13,.18-.26,.34-.39,.51-.13,.17-.27,.34-.41,.5Zm.5,3.22c.2-.18,.39-.35,.59-.54,.2-.19,.39-.39,.58-.58,.37-.39,.71-.79,1.05-1.22h0s0-.03,.02-.03v-.02c.17-.22,.33-.43,.48-.66,.02-.02,.03-.03,.03-.04,.13-.21,.28-.43,.41-.65,.13-.23,.27-.46,.39-.7,0,0,.02-.03,.03-.03,.11-.22,.23-.44,.33-.66,.09-.18,.18-.38,.26-.57,.05-.12,.1-.24,.15-.37,.18-.47,.35-.95,.49-1.45,.08-.27,.15-.54,.21-.81,.06-.28,.12-.55,.16-.83,.04-.21,.07-.42,.09-.64,.02-.1,.03-.2,.04-.29,0-.03,0-.05,0-.08,.03-.24,.04-.46,.05-.7,.02-.29,.03-.58,.03-.87v-.13h18.73c-6.9,6.06-15.2,10.12-24.12,11.86Zm26.28-14.5h-21.15c-.03-.16-.06-.31-.09-.47,0-.07-.03-.13-.04-.19-.03-.12-.05-.23-.08-.34-.03-.16-.08-.31-.13-.47-.08-.27-.16-.53-.25-.79-.06-.18-.13-.36-.2-.54-.07-.19-.14-.38-.23-.56-.09-.21-.18-.42-.29-.63-.11-.23-.24-.46-.36-.69-.04-.08-.09-.17-.14-.25-.24-.42-.5-.83-.79-1.23t0,0s.08,0,.11,.02c.12,.02,.23,.03,.34,.03,.02,0,.03,0,.05,0h0s0,0,.02,0c.18,.02,.36,.03,.54,.04,.05,0,.1,.02,.15,0,.24,.02,.48,.03,.71,.03,4.21,0,8.18-1.64,11.15-4.62,3.49-3.48,5.07-8.28,4.52-12.96h0s.03,.02,.04,.03c.23,.16,.45,.31,.68,.45,.23,.14,.46,.29,.7,.41,.24,.13,.47,.25,.71,.37,.55,.27,1.11,.5,1.68,.7,.22,.08,.45,.15,.67,.22,.55,.17,1.11,.3,1.68,.4v21.05Zm2.66-2.15v-18.65h.08c.28,0,.55,0,.81-.03,.15,0,.3-.02,.45-.03,.38-.03,.76-.07,1.13-.13,.26-.04,.52-.08,.78-.14,.18-.03,.35-.08,.52-.12,.24-.06,.49-.13,.72-.2,.36-.1,.72-.23,1.08-.37,.16-.06,.31-.12,.47-.18,.44-.18,.87-.39,1.28-.61,.18-.1,.38-.21,.56-.32,.21-.13,.42-.25,.62-.39,.21-.13,.4-.28,.6-.42,.19-.13,.38-.28,.55-.42,.14-.11,.28-.22,.41-.34,.11-.08,.21-.18,.3-.27,.08-.06,.15-.13,.22-.19,.14-.13,.29-.28,.43-.42,.15-.14,.29-.29,.44-.45,.14-.16,.29-.32,.43-.49-1.73,8.95-5.81,17.26-11.91,24.19Zm12.86-34.04c0,.29,0,.58-.03,.87-.02,.25-.04,.5-.08,.74-.02,.15-.04,.31-.07,.45-.05,.31-.11,.62-.19,.92-.03,.13-.05,.24-.09,.36-.06,.24-.13,.46-.21,.68-.07,.23-.15,.45-.24,.66-.05,.15-.11,.29-.18,.43-.08,.19-.17,.38-.27,.55-.05,.12-.11,.23-.17,.34-.09,.17-.18,.34-.29,.5-.15,.25-.31,.5-.48,.73-.43,.63-.92,1.22-1.47,1.76-.57,.58-1.21,1.1-1.89,1.56-1.36,.92-2.9,1.58-4.56,1.92-.41,.08-.83,.15-1.26,.19-.43,.04-.87,.07-1.3,.07s-.86-.02-1.28-.06h0c-.24-.03-.46-.05-.7-.09-.42-.07-.84-.15-1.25-.26-.15-.03-.3-.08-.45-.13-.15-.04-.29-.09-.44-.13-.18-.07-.37-.13-.55-.21-.22-.08-.43-.17-.64-.27-.57-.26-1.12-.56-1.64-.91-.17-.1-.34-.22-.5-.34-.02,0-.03-.02-.04-.03-.11-.08-.23-.16-.34-.25-.07-.04-.13-.09-.19-.15-.15-.12-.3-.24-.45-.38-.05-.04-.1-.08-.15-.13-.1-.08-.19-.18-.29-.27-.24-.24-.49-.49-.71-.75-.09-.11-.18-.21-.27-.32-.15-.18-.29-.36-.43-.55-.06-.08-.12-.16-.18-.24,0-.02-.02-.03-.03-.04-.02-.03-.03-.05-.04-.08,0,0,0-.02-.02-.03,0-.02-.03-.03-.03-.05,0,0,0-.02-.02-.02-.27-.4-.51-.82-.72-1.25h0s-.02-.04-.03-.06c0,0,0,0,0,0h0s-.03-.05-.03-.07c-.02-.03-.03-.06-.05-.08-.03-.04-.07-.09-.1-.13-.06-.1-.13-.2-.2-.29-.07-.1-.13-.19-.21-.29-.43-.58-.91-1.13-1.42-1.63l-3.32-3.32,3.32-3.32c.8-.8,1.5-1.67,2.1-2.61,.03-.05,.07-.09,.1-.14,0,0,0,0,0-.02,.03-.05,.06-.1,.09-.15,.09-.16,.18-.32,.28-.48h0s.03-.05,.04-.08c0,0,0-.02,0-.03s.02-.02,.02-.02t0-.02c.05-.08,.1-.14,.15-.21,0,0,0,0,0-.02,.09-.14,.19-.29,.29-.43,.12-.16,.24-.32,.37-.48,.29-.37,.61-.72,.95-1.06,.03-.03,.04-.04,.07-.06,.05-.05,.09-.09,.14-.14,.11-.1,.23-.21,.34-.31,.18-.17,.36-.32,.55-.46,.18-.14,.36-.28,.55-.41,0,0,.02,0,.03-.02,.2-.14,.41-.28,.62-.4,.22-.13,.44-.26,.66-.39,.23-.12,.45-.24,.69-.34,.12-.06,.24-.11,.35-.15,.12-.05,.24-.1,.35-.14,.02,0,.04-.02,.06-.03,.15-.06,.29-.12,.45-.16,.11-.04,.21-.08,.32-.1,.14-.05,.29-.09,.45-.13,.15-.04,.3-.08,.45-.11,.21-.05,.42-.09,.63-.13,.04,0,.08-.02,.12-.03,.08-.02,.17-.03,.26-.04,.2-.03,.4-.06,.61-.08,.42-.04,.86-.07,1.29-.07,7.05,0,12.78,5.74,12.78,12.78v.05Z"/></g><g><path d="M80.59,63.01c-.16-.23-.3-.45-.44-.69-.11-.18-.22-.37-.31-.56-.03-.05-.06-.11-.08-.17,0,.02,.02,.03,.03,.03,.29,.39,.52,.82,.75,1.24,.02,.04,.03,.09,.06,.14Z"/><path d="M82.06,60.28h0s-.03-.05-.03-.07c.02,.02,.03,.04,.04,.07Z"/><path d="M82.84,61.6s0,0,0,.02c0,0,0-.02-.02-.02-.27-.4-.51-.82-.72-1.25,.03,.02,.04,.04,.05,.07,.12,.18,.24,.35,.34,.54,.13,.21,.24,.43,.35,.65Z"/></g><path d="M82.62,47.75c-.04,.09-.09,.18-.14,.26-.04,.08-.09,.15-.13,.22,.09-.16,.18-.32,.28-.48Z"/><g><path d="M54.45,106.22c-.5,0-1,0-1.5-.02h-.05s-.03,0-.05,0h.08c.5,.02,1.02,.03,1.52,.03Z"/><path d="M56,108.85c-.52,.06-1.05,.09-1.58,.09s-1.08-.03-1.6-.09c.55,.02,1.09,.03,1.64,.03s1.05,0,1.55-.03Z"/></g><g><path d="M.3,54.48H.3c-.18,.23-.28,.5-.28,.8-.02-.25-.03-.53-.03-.81s0-.52,.03-.78c0,.3,.1,.57,.28,.79Z"/><path d="M2.68,55.23v.05s0-.05,0-.08c-.02-.27-.11-.52-.27-.72,.16-.2,.25-.45,.27-.73v.68c0,.27,0,.53,0,.8Z"/></g><g><path d="M26.84,48.77c-.16-.24-.32-.5-.47-.75-.12-.2-.23-.39-.33-.6t.02,.02c.25,.38,.5,.79,.71,1.2,.03,.04,.05,.09,.08,.13Z"/><path d="M29.05,47.29c-.26-.39-.5-.81-.72-1.22,0-.02-.02-.03-.03-.04-.02-.04-.04-.08-.08-.13,.02,.03,.03,.04,.05,.07,0,0,0,0,0,.02,.14,.22,.29,.44,.42,.66,.12,.21,.24,.42,.34,.64Z"/></g><g><path d="M26.77,60.31c-.23,.44-.47,.86-.74,1.24,.22-.42,.46-.84,.74-1.24Z"/><path d="M29.05,61.65s-.02,.05-.03,.08c-.1,.19-.21,.39-.32,.57-.1,.18-.22,.35-.34,.53,0,.03-.03,.05-.05,.08,0-.03,.03-.04,.03-.07,.22-.4,.45-.8,.71-1.18Z"/></g><g><path d="M26.77,60.31c-.23,.44-.47,.86-.74,1.24,.22-.42,.46-.84,.74-1.24Z"/><path d="M29.05,61.65s-.02,.05-.03,.08c-.1,.19-.21,.39-.32,.57-.1,.18-.22,.35-.34,.53,0,.03-.03,.05-.05,.08,0-.03,.03-.04,.03-.07,.22-.4,.45-.8,.71-1.18Z"/></g><path d="M82.62,47.75c-.04,.09-.09,.18-.14,.26-.04,.08-.09,.15-.13,.22,.09-.16,.18-.32,.28-.48Z"/><g><path d="M26.84,48.77c-.16-.24-.32-.5-.47-.75-.12-.2-.23-.39-.33-.6t.02,.02c.25,.38,.5,.79,.71,1.2,.03,.04,.05,.09,.08,.13Z"/><path d="M29.05,47.29c-.26-.39-.5-.81-.72-1.22,0-.02-.02-.03-.03-.04-.02-.04-.04-.08-.08-.13,.02,.03,.03,.04,.05,.07,0,0,0,0,0,.02,.14,.22,.29,.44,.42,.66,.12,.21,.24,.42,.34,.64Z"/></g><g><path d="M80.59,63.01c-.16-.23-.3-.45-.44-.69-.11-.18-.22-.37-.31-.56-.03-.05-.06-.11-.08-.17,0,.02,.02,.03,.03,.03,.29,.39,.52,.82,.75,1.24,.02,.04,.03,.09,.06,.14Z"/><path d="M82.06,60.28h0s-.03-.05-.03-.07c.02,.02,.03,.04,.04,.07Z"/><path d="M82.84,61.6s0,0,0,.02c0,0,0-.02-.02-.02-.27-.4-.51-.82-.72-1.25,.03,.02,.04,.04,.05,.07,.12,.18,.24,.35,.34,.54,.13,.21,.24,.43,.35,.65Z"/></g><path d="M82.49,60.96c-.1-.18-.22-.36-.34-.54,0-.03-.03-.05-.05-.07,.21,.43,.45,.85,.72,1.25,0,0,0,0,.02,.02,0,0,0-.02,0-.02-.11-.22-.23-.44-.35-.65Zm-.47-.74s.03,.04,.03,.07h0s-.03-.05-.04-.07Zm.66-12.57s0,.02,0,.03c0-.02,.02-.03,.03-.04,0,0,0,0-.02,.02Zm-.34,.58c.04-.07,.09-.14,.13-.22,.05-.08,.1-.17,.14-.26-.1,.16-.18,.32-.28,.48Zm.15,12.73c-.1-.18-.22-.36-.34-.54,0-.03-.03-.05-.05-.07,.21,.43,.45,.85,.72,1.25,0,0,0,0,.02,.02,0,0,0-.02,0-.02-.11-.22-.23-.44-.35-.65Zm-.47-.74s.03,.04,.03,.07h0s-.03-.05-.04-.07Zm.66-12.57s0,.02,0,.03c0-.02,.02-.03,.03-.04,0,0,0,0-.02,.02Zm-.34,.58c.04-.07,.09-.14,.13-.22,.05-.08,.1-.17,.14-.26-.1,.16-.18,.32-.28,.48Zm.15,12.73c-.1-.18-.22-.36-.34-.54,0-.03-.03-.05-.05-.07,.21,.43,.45,.85,.72,1.25,0,0,0,0,.02,.02,0,0,0-.02,0-.02-.11-.22-.23-.44-.35-.65Zm-.47-.74s.03,.04,.03,.07h0s-.03-.05-.04-.07Zm.66-12.57s0,.02,0,.03c0-.02,.02-.03,.03-.04,0,0,0,0-.02,.02Zm-.34,.58c.04-.07,.09-.14,.13-.22,.05-.08,.1-.17,.14-.26-.1,.16-.18,.32-.28,.48Zm.15,12.73c-.1-.18-.22-.36-.34-.54,0-.03-.03-.05-.05-.07,.21,.43,.45,.85,.72,1.25,0,0,0,0,.02,.02,0,0,0-.02,0-.02-.11-.22-.23-.44-.35-.65Zm-.47-.74s.03,.04,.03,.07h0s-.03-.05-.04-.07Zm.66-12.57s0,.02,0,.03c0-.02,.02-.03,.03-.04,0,0,0,0-.02,.02Zm-.34,.58c.04-.07,.09-.14,.13-.22,.05-.08,.1-.17,.14-.26-.1,.16-.18,.32-.28,.48Zm.15,12.73c-.1-.18-.22-.36-.34-.54,0-.03-.03-.05-.05-.07,.21,.43,.45,.85,.72,1.25,0,0,0,0,.02,.02,0,0,0-.02,0-.02-.11-.22-.23-.44-.35-.65Zm-.47-.74s.03,.04,.03,.07h0s-.03-.05-.04-.07Zm.66-12.57s0,.02,0,.03c0-.02,.02-.03,.03-.04,0,0,0,0-.02,.02Zm-.34,.58c.04-.07,.09-.14,.13-.22,.05-.08,.1-.17,.14-.26-.1,.16-.18,.32-.28,.48Zm.15,12.73c-.1-.18-.22-.36-.34-.54,0-.03-.03-.05-.05-.07,.21,.43,.45,.85,.72,1.25,0,0,0,0,.02,.02,0,0,0-.02,0-.02-.11-.22-.23-.44-.35-.65Zm-.47-.74s.03,.04,.03,.07h0s-.03-.05-.04-.07Zm.66-12.57s0,.02,0,.03c0-.02,.02-.03,.03-.04,0,0,0,0-.02,.02Zm-.34,.58c.04-.07,.09-.14,.13-.22,.05-.08,.1-.17,.14-.26-.1,.16-.18,.32-.28,.48Zm.15,12.73c-.1-.18-.22-.36-.34-.54,0-.03-.03-.05-.05-.07,.21,.43,.45,.85,.72,1.25,0,0,0,0,.02,.02,0,0,0-.02,0-.02-.11-.22-.23-.44-.35-.65Zm-.47-.74s.03,.04,.03,.07h0s-.03-.05-.04-.07Zm.66-12.57s0,.02,0,.03c0-.02,.02-.03,.03-.04,0,0,0,0-.02,.02Zm-.34,.58c.04-.07,.09-.14,.13-.22,.05-.08,.1-.17,.14-.26-.1,.16-.18,.32-.28,.48Zm.15,12.73c-.1-.18-.22-.36-.34-.54,0-.03-.03-.05-.05-.07,.21,.43,.45,.85,.72,1.25,0,0,0,0,.02,.02,0,0,0-.02,0-.02-.11-.22-.23-.44-.35-.65Zm-.47-.74s.03,.04,.03,.07h0s-.03-.05-.04-.07Zm.66-12.57s0,.02,0,.03c0-.02,.02-.03,.03-.04,0,0,0,0-.02,.02Zm-.34,.58c.04-.07,.09-.14,.13-.22,.05-.08,.1-.17,.14-.26-.1,.16-.18,.32-.28,.48Zm.15,12.73c-.1-.18-.22-.36-.34-.54,0-.03-.03-.05-.05-.07,.21,.43,.45,.85,.72,1.25,0,0,0,0,.02,.02,0,0,0-.02,0-.02-.11-.22-.23-.44-.35-.65Zm-.47-.74s.03,.04,.03,.07h0s-.03-.05-.04-.07Zm.66-12.57s0,.02,0,.03c0-.02,.02-.03,.03-.04,0,0,0,0-.02,.02Zm-.34,.58c.04-.07,.09-.14,.13-.22,.05-.08,.1-.17,.14-.26-.1,.16-.18,.32-.28,.48Zm.15,12.73c-.1-.18-.22-.36-.34-.54,0-.03-.03-.05-.05-.07,.21,.43,.45,.85,.72,1.25,0,0,0,0,.02,.02,0,0,0-.02,0-.02-.11-.22-.23-.44-.35-.65Zm.18-13.31s0,.02,0,.03c0-.02,.02-.03,.03-.04,0,0,0,0-.02,.02Zm-.34,.58c.04-.07,.09-.14,.13-.22,.05-.08,.1-.17,.14-.26-.1,.16-.18,.32-.28,.48Zm-.32,11.99s.03,.04,.03,.07h0s-.03-.05-.04-.07Zm.47,.74c-.1-.18-.22-.36-.34-.54,0-.03-.03-.05-.05-.07,.21,.43,.45,.85,.72,1.25,0,0,0,0,.02,.02,0,0,0-.02,0-.02-.11-.22-.23-.44-.35-.65Zm.18-13.31s0,.02,0,.03c0-.02,.02-.03,.03-.04,0,0,0,0-.02,.02Zm-.34,.58c.04-.07,.09-.14,.13-.22,.05-.08,.1-.17,.14-.26-.1,.16-.18,.32-.28,.48Zm-.32,11.99s.03,.04,.03,.07h0s-.03-.05-.04-.07Zm.47,.74c-.1-.18-.22-.36-.34-.54,0-.03-.03-.05-.05-.07,.21,.43,.45,.85,.72,1.25,0,0,0,0,.02,.02,0,0,0-.02,0-.02-.11-.22-.23-.44-.35-.65Zm.18-13.31s0,.02,0,.03c0-.02,.02-.03,.03-.04,0,0,0,0-.02,.02Zm-.34,.58c.04-.07,.09-.14,.13-.22,.05-.08,.1-.17,.14-.26-.1,.16-.18,.32-.28,.48Zm-.32,11.99s.03,.04,.03,.07h0s-.03-.05-.04-.07Zm.47,.74c-.1-.18-.22-.36-.34-.54,0-.03-.03-.05-.05-.07,.21,.43,.45,.85,.72,1.25,0,0,0,0,.02,.02,0,0,0-.02,0-.02-.11-.22-.23-.44-.35-.65Zm.18-13.31s0,.02,0,.03c0-.02,.02-.03,.03-.04,0,0,0,0-.02,.02Zm-.34,.58c.04-.07,.09-.14,.13-.22,.05-.08,.1-.17,.14-.26-.1,.16-.18,.32-.28,.48Zm-.32,11.99s.03,.04,.03,.07h0s-.03-.05-.04-.07Zm.47,.74c-.1-.18-.22-.36-.34-.54,0-.03-.03-.05-.05-.07,.21,.43,.45,.85,.72,1.25,0,0,0,0,.02,.02,0,0,0-.02,0-.02-.11-.22-.23-.44-.35-.65Zm.18-13.31s0,.02,0,.03c0-.02,.02-.03,.03-.04,0,0,0,0-.02,.02Zm-.34,.58c.04-.07,.09-.14,.13-.22,.05-.08,.1-.17,.14-.26-.1,.16-.18,.32-.28,.48Zm-.32,11.99s.03,.04,.03,.07h0s-.03-.05-.04-.07Zm.47,.74c-.1-.18-.22-.36-.34-.54,0-.03-.03-.05-.05-.07,.21,.43,.45,.85,.72,1.25,0,0,0,0,.02,.02,0,0,0-.02,0-.02-.11-.22-.23-.44-.35-.65Zm.18-13.31s0,.02,0,.03c0-.02,.02-.03,.03-.04,0,0,0,0-.02,.02Zm-.34,.58c.04-.07,.09-.14,.13-.22,.05-.08,.1-.17,.14-.26-.1,.16-.18,.32-.28,.48Zm-.32,11.99s.03,.04,.03,.07h0s-.03-.05-.04-.07Zm.47,.74c-.1-.18-.22-.36-.34-.54,0-.03-.03-.05-.05-.07,.21,.43,.45,.85,.72,1.25,0,0,0,0,.02,.02,0,0,0-.02,0-.02-.11-.22-.23-.44-.35-.65Zm.18-13.31s0,.02,0,.03c0-.02,.02-.03,.03-.04,0,0,0,0-.02,.02Zm-.34,.58c.04-.07,.09-.14,.13-.22,.05-.08,.1-.17,.14-.26-.1,.16-.18,.32-.28,.48Zm-.32,11.99s.03,.04,.03,.07h0s-.03-.05-.04-.07Zm.47,.74c-.1-.18-.22-.36-.34-.54,0-.03-.03-.05-.05-.07,.21,.43,.45,.85,.72,1.25,0,0,0,0,.02,.02,0,0,0-.02,0-.02-.11-.22-.23-.44-.35-.65Zm.18-13.31s0,.02,0,.03c0-.02,.02-.03,.03-.04,0,0,0,0-.02,.02Zm-.34,.58c.04-.07,.09-.14,.13-.22,.05-.08,.1-.17,.14-.26-.1,.16-.18,.32-.28,.48Zm-.32,11.99s.03,.04,.03,.07h0s-.03-.05-.04-.07Zm.47,.74c-.1-.18-.22-.36-.34-.54,0-.03-.03-.05-.05-.07,.21,.43,.45,.85,.72,1.25,0,0,0,0,.02,.02,0,0,0-.02,0-.02-.11-.22-.23-.44-.35-.65Zm.18-13.31s0,.02,0,.03c0-.02,.02-.03,.03-.04,0,0,0,0-.02,.02Zm-.34,.58c.04-.07,.09-.14,.13-.22,.05-.08,.1-.17,.14-.26-.1,.16-.18,.32-.28,.48Zm-.32,11.99s.03,.04,.03,.07h0s-.03-.05-.04-.07Zm.47,.74c-.1-.18-.22-.36-.34-.54,0-.03-.03-.05-.05-.07,.21,.43,.45,.85,.72,1.25,0,0,0,0,.02,.02,0,0,0-.02,0-.02-.11-.22-.23-.44-.35-.65Zm.18-13.31s0,.02,0,.03c0-.02,.02-.03,.03-.04,0,0,0,0-.02,.02Zm-.34,.58c.04-.07,.09-.14,.13-.22,.05-.08,.1-.17,.14-.26-.1,.16-.18,.32-.28,.48Zm-.32,11.99s.03,.04,.03,.07h0s-.03-.05-.04-.07Zm.47,.74c-.1-.18-.22-.36-.34-.54,0-.03-.03-.05-.05-.07,.21,.43,.45,.85,.72,1.25,0,0,0,0,.02,.02,0,0,0-.02,0-.02-.11-.22-.23-.44-.35-.65Zm.18-13.31s0,.02,0,.03c0-.02,.02-.03,.03-.04,0,0,0,0-.02,.02Zm-.34,.58c.04-.07,.09-.14,.13-.22,.05-.08,.1-.17,.14-.26-.1,.16-.18,.32-.28,.48Zm-.32,11.99s.03,.04,.03,.07h0s-.03-.05-.04-.07Zm.66-12.57s0,.02,0,.03c0-.02,.02-.03,.03-.04,0,0,0,0-.02,.02Zm-.34,.58c.04-.07,.09-.14,.13-.22,.05-.08,.1-.17,.14-.26-.1,.16-.18,.32-.28,.48Zm.15,12.73c-.1-.18-.22-.36-.34-.54,0-.03-.03-.05-.05-.07,.21,.43,.45,.85,.72,1.25,0,0,0,0,.02,.02,0,0,0-.02,0-.02-.11-.22-.23-.44-.35-.65Zm-.47-.74s.03,.04,.03,.07h0s-.03-.05-.04-.07Zm0,0s.03,.04,.03,.07h0s-.03-.05-.04-.07Zm.32-11.99c.04-.07,.09-.14,.13-.22,.05-.08,.1-.17,.14-.26-.1,.16-.18,.32-.28,.48Zm.34-.58s0,.02,0,.03c0-.02,.02-.03,.03-.04,0,0,0,0-.02,.02Zm-.18,13.31c-.1-.18-.22-.36-.34-.54,0-.03-.03-.05-.05-.07,.21,.43,.45,.85,.72,1.25,0,0,0,0,.02,.02,0,0,0-.02,0-.02-.11-.22-.23-.44-.35-.65Zm-.47-.74s.03,.04,.03,.07h0s-.03-.05-.04-.07Zm.32-11.99c.04-.07,.09-.14,.13-.22,.05-.08,.1-.17,.14-.26-.1,.16-.18,.32-.28,.48Zm.34-.58s0,.02,0,.03c0-.02,.02-.03,.03-.04,0,0,0,0-.02,.02Zm-.18,13.31c-.1-.18-.22-.36-.34-.54,0-.03-.03-.05-.05-.07,.21,.43,.45,.85,.72,1.25,0,0,0,0,.02,.02,0,0,0-.02,0-.02-.11-.22-.23-.44-.35-.65Zm-.47-.74s.03,.04,.03,.07h0s-.03-.05-.04-.07Zm.32-11.99c.04-.07,.09-.14,.13-.22,.05-.08,.1-.17,.14-.26-.1,.16-.18,.32-.28,.48Zm.34-.58s0,.02,0,.03c0-.02,.02-.03,.03-.04,0,0,0,0-.02,.02Zm-.18,13.31c-.1-.18-.22-.36-.34-.54,0-.03-.03-.05-.05-.07,.21,.43,.45,.85,.72,1.25,0,0,0,0,.02,.02,0,0,0-.02,0-.02-.11-.22-.23-.44-.35-.65Zm-.47-.74s.03,.04,.03,.07h0s-.03-.05-.04-.07Zm.32-11.99c.04-.07,.09-.14,.13-.22,.05-.08,.1-.17,.14-.26-.1,.16-.18,.32-.28,.48Zm.34-.58s0,.02,0,.03c0-.02,.02-.03,.03-.04,0,0,0,0-.02,.02Zm-.18,13.31c-.1-.18-.22-.36-.34-.54,0-.03-.03-.05-.05-.07,.21,.43,.45,.85,.72,1.25,0,0,0,0,.02,.02,0,0,0-.02,0-.02-.11-.22-.23-.44-.35-.65Zm-.47-.74s.03,.04,.03,.07h0s-.03-.05-.04-.07Zm.32-11.99c.04-.07,.09-.14,.13-.22,.05-.08,.1-.17,.14-.26-.1,.16-.18,.32-.28,.48Zm.34-.58s0,.02,0,.03c0-.02,.02-.03,.03-.04,0,0,0,0-.02,.02Zm-.18,13.31c-.1-.18-.22-.36-.34-.54,0-.03-.03-.05-.05-.07,.21,.43,.45,.85,.72,1.25,0,0,0,0,.02,.02,0,0,0-.02,0-.02-.11-.22-.23-.44-.35-.65Zm-.47-.74s.03,.04,.03,.07h0s-.03-.05-.04-.07Zm.32-11.99c.04-.07,.09-.14,.13-.22,.05-.08,.1-.17,.14-.26-.1,.16-.18,.32-.28,.48Zm.34-.58s0,.02,0,.03c0-.02,.02-.03,.03-.04,0,0,0,0-.02,.02Zm-.18,13.31c-.1-.18-.22-.36-.34-.54,0-.03-.03-.05-.05-.07,.21,.43,.45,.85,.72,1.25,0,0,0,0,.02,.02,0,0,0-.02,0-.02-.11-.22-.23-.44-.35-.65Zm-.47-.74s.03,.04,.03,.07h0s-.03-.05-.04-.07Zm.32-11.99c.04-.07,.09-.14,.13-.22,.05-.08,.1-.17,.14-.26-.1,.16-.18,.32-.28,.48Zm.34-.58s0,.02,0,.03c0-.02,.02-.03,.03-.04,0,0,0,0-.02,.02Zm-.18,13.31c-.1-.18-.22-.36-.34-.54,0-.03-.03-.05-.05-.07,.21,.43,.45,.85,.72,1.25,0,0,0,0,.02,.02,0,0,0-.02,0-.02-.11-.22-.23-.44-.35-.65Zm-.47-.74s.03,.04,.03,.07h0s-.03-.05-.04-.07Zm.32-11.99c.04-.07,.09-.14,.13-.22,.05-.08,.1-.17,.14-.26-.1,.16-.18,.32-.28,.48Zm.34-.58s0,.02,0,.03c0-.02,.02-.03,.03-.04,0,0,0,0-.02,.02Zm-.18,13.31c-.1-.18-.22-.36-.34-.54,0-.03-.03-.05-.05-.07,.21,.43,.45,.85,.72,1.25,0,0,0,0,.02,.02,0,0,0-.02,0-.02-.11-.22-.23-.44-.35-.65Zm-.47-.74s.03,.04,.03,.07h0s-.03-.05-.04-.07Zm.32-11.99c.04-.07,.09-.14,.13-.22,.05-.08,.1-.17,.14-.26-.1,.16-.18,.32-.28,.48Zm.34-.58s0,.02,0,.03c0-.02,.02-.03,.03-.04,0,0,0,0-.02,.02Zm-.18,13.31c-.1-.18-.22-.36-.34-.54,0-.03-.03-.05-.05-.07,.21,.43,.45,.85,.72,1.25,0,0,0,0,.02,.02,0,0,0-.02,0-.02-.11-.22-.23-.44-.35-.65Zm-.47-.74s.03,.04,.03,.07h0s-.03-.05-.04-.07Zm.32-11.99c.04-.07,.09-.14,.13-.22,.05-.08,.1-.17,.14-.26-.1,.16-.18,.32-.28,.48Zm.34-.58s0,.02,0,.03c0-.02,.02-.03,.03-.04,0,0,0,0-.02,.02Zm-.18,13.31c-.1-.18-.22-.36-.34-.54,0-.03-.03-.05-.05-.07,.21,.43,.45,.85,.72,1.25,0,0,0,0,.02,.02,0,0,0-.02,0-.02-.11-.22-.23-.44-.35-.65Zm-.47-.74s.03,.04,.03,.07h0s-.03-.05-.04-.07Zm.32-11.99c.04-.07,.09-.14,.13-.22,.05-.08,.1-.17,.14-.26-.1,.16-.18,.32-.28,.48Zm.34-.58s0,.02,0,.03c0-.02,.02-.03,.03-.04,0,0,0,0-.02,.02Zm-.18,13.31c-.1-.18-.22-.36-.34-.54,0-.03-.03-.05-.05-.07,.21,.43,.45,.85,.72,1.25,0,0,0,0,.02,.02,0,0,0-.02,0-.02-.11-.22-.23-.44-.35-.65Zm-.15-12.73c.04-.07,.09-.14,.13-.22,.05-.08,.1-.17,.14-.26-.1,.16-.18,.32-.28,.48Zm.34-.58s0,.02,0,.03c0-.02,.02-.03,.03-.04,0,0,0,0-.02,.02Zm-.18,13.31c-.1-.18-.22-.36-.34-.54,0-.03-.03-.05-.05-.07,.21,.43,.45,.85,.72,1.25,0,0,0,0,.02,.02,0,0,0-.02,0-.02-.11-.22-.23-.44-.35-.65Zm-.47-.74s.03,.04,.03,.07h0s-.03-.05-.04-.07Zm.32-11.99c.04-.07,.09-.14,.13-.22,.05-.08,.1-.17,.14-.26-.1,.16-.18,.32-.28,.48Zm.34-.58s0,.02,0,.03c0-.02,.02-.03,.03-.04,0,0,0,0-.02,.02Zm-.18,13.31c-.1-.18-.22-.36-.34-.54,0-.03-.03-.05-.05-.07,.21,.43,.45,.85,.72,1.25,0,0,0,0,.02,.02,0,0,0-.02,0-.02-.11-.22-.23-.44-.35-.65Zm-.47-.74s.03,.04,.03,.07h0s-.03-.05-.04-.07Zm.32-11.99c.04-.07,.09-.14,.13-.22,.05-.08,.1-.17,.14-.26-.1,.16-.18,.32-.28,.48Zm.34-.58s0,.02,0,.03c0-.02,.02-.03,.03-.04,0,0,0,0-.02,.02Zm-.18,13.31c-.1-.18-.22-.36-.34-.54,0-.03-.03-.05-.05-.07,.21,.43,.45,.85,.72,1.25,0,0,0,0,.02,.02,0,0,0-.02,0-.02-.11-.22-.23-.44-.35-.65Zm-.47-.74s.03,.04,.03,.07h0s-.03-.05-.04-.07Zm.32-11.99c.04-.07,.09-.14,.13-.22,.05-.08,.1-.17,.14-.26-.1,.16-.18,.32-.28,.48Zm.34-.58s0,.02,0,.03c0-.02,.02-.03,.03-.04,0,0,0,0-.02,.02Zm-.18,13.31c-.1-.18-.22-.36-.34-.54,0-.03-.03-.05-.05-.07,.21,.43,.45,.85,.72,1.25,0,0,0,0,.02,.02,0,0,0-.02,0-.02-.11-.22-.23-.44-.35-.65Zm-.47-.74s.03,.04,.03,.07h0s-.03-.05-.04-.07Zm.32-11.99c.04-.07,.09-.14,.13-.22,.05-.08,.1-.17,.14-.26-.1,.16-.18,.32-.28,.48Zm.34-.58s0,.02,0,.03c0-.02,.02-.03,.03-.04,0,0,0,0-.02,.02Zm-.18,13.31c-.1-.18-.22-.36-.34-.54,0-.03-.03-.05-.05-.07,.21,.43,.45,.85,.72,1.25,0,0,0,0,.02,.02,0,0,0-.02,0-.02-.11-.22-.23-.44-.35-.65Zm-.47-.74s.03,.04,.03,.07h0s-.03-.05-.04-.07Zm.32-11.99c.04-.07,.09-.14,.13-.22,.05-.08,.1-.17,.14-.26-.1,.16-.18,.32-.28,.48Zm.34-.58s0,.02,0,.03c0-.02,.02-.03,.03-.04,0,0,0,0-.02,.02Zm-.18,13.31c-.1-.18-.22-.36-.34-.54,0-.03-.03-.05-.05-.07,.21,.43,.45,.85,.72,1.25,0,0,0,0,.02,.02,0,0,0-.02,0-.02-.11-.22-.23-.44-.35-.65Zm-.47-.74s.03,.04,.03,.07h0s-.03-.05-.04-.07Zm.32-11.99c.04-.07,.09-.14,.13-.22,.05-.08,.1-.17,.14-.26-.1,.16-.18,.32-.28,.48Zm.34-.58s0,.02,0,.03c0-.02,.02-.03,.03-.04,0,0,0,0-.02,.02Zm-.18,13.31c-.1-.18-.22-.36-.34-.54,0-.03-.03-.05-.05-.07,.21,.43,.45,.85,.72,1.25,0,0,0,0,.02,.02,0,0,0-.02,0-.02-.11-.22-.23-.44-.35-.65Zm-.47-.74s.03,.04,.03,.07h0s-.03-.05-.04-.07Zm.32-11.99c.04-.07,.09-.14,.13-.22,.05-.08,.1-.17,.14-.26-.1,.16-.18,.32-.28,.48Zm.34-.58s0,.02,0,.03c0-.02,.02-.03,.03-.04,0,0,0,0-.02,.02Zm-.18,13.31c-.1-.18-.22-.36-.34-.54,0-.03-.03-.05-.05-.07,.21,.43,.45,.85,.72,1.25,0,0,0,0,.02,.02,0,0,0-.02,0-.02-.11-.22-.23-.44-.35-.65Zm-.47-.74s.03,.04,.03,.07h0s-.03-.05-.04-.07Zm.32-11.99c.04-.07,.09-.14,.13-.22,.05-.08,.1-.17,.14-.26-.1,.16-.18,.32-.28,.48Zm.34-.58s0,.02,0,.03c0-.02,.02-.03,.03-.04,0,0,0,0-.02,.02Zm-.18,13.31c-.1-.18-.22-.36-.34-.54,0-.03-.03-.05-.05-.07,.21,.43,.45,.85,.72,1.25,0,0,0,0,.02,.02,0,0,0-.02,0-.02-.11-.22-.23-.44-.35-.65Zm-.47-.74s.03,.04,.03,.07h0s-.03-.05-.04-.07Z"/><path d="M92.61,15.72s.03,.02,.05,.03c0,0,.02,0,.03,0-.03-.03-.05-.03-.08-.04Z"/><path d="M92.61,15.72s.03,.02,.05,.03c0,0,.02,0,.03,0-.03-.03-.05-.03-.08-.04Zm.26,.15s0,0-.02-.02c-.02,0-.03-.03-.04-.03,0,0-.02,0-.03-.02s-.02,0-.03,0c0,0,0,.02,.02,.02,.05,.03,.1,.07,.14,.11-.02-.02-.03-.03-.05-.05Zm-23.05-.29h0v-.17c0,.06,0,.11,0,.17Z"/><path d="M52.93,106.19h-.03c-.18-.02-.37-.04-.55-.08,.15,.03,.31,.05,.46,.08h.03s.03,0,.05,0h.05s-.02,0-.03,0Z"/><g><path d="M15.94,15.96c.13-.12,.27-.22,.43-.29-.15,.07-.3,.16-.43,.29Z"/><path d="M92.61,15.72s.03,.02,.05,.03c0,0,.02,0,.03,0-.03-.03-.05-.03-.08-.04Z"/></g><path d="M66.97,24.36l1.89-.12c-.63,0-1.26,.03-1.89,.12Z"/><path d="M82.62,47.75c-.04,.09-.09,.18-.14,.26-.04,.08-.09,.15-.13,.22,.09-.16,.18-.32,.28-.48Z"/><path d="M54.43,35.92h0l18.55,18.55-18.54-18.55Z"/><path d="M27.03,42.27c.08,.5,.2,1.01,.36,1.5-.15-.5-.28-1-.36-1.5Zm1.67,4.38c-.13-.23-.28-.45-.42-.66,0,0,0,0,0-.02-.02-.03-.03-.04-.05-.07,.03,.04,.06,.08,.08,.13,0,.02,.02,.03,.03,.04,.22,.41,.46,.82,.72,1.22,0,0,0,0,0,.02,0,.02,.03,.03,.03,.04-.12-.24-.25-.47-.39-.7Zm-1.67-4.38c.08,.5,.2,1.01,.36,1.5-.15-.5-.28-1-.36-1.5Zm0,0c.08,.5,.2,1.01,.36,1.5-.15-.5-.28-1-.36-1.5Z"/><g><path d="M26.84,48.77c-.16-.24-.32-.5-.47-.75-.12-.2-.23-.39-.33-.6t.02,.02c.25,.38,.5,.79,.71,1.2,.03,.04,.05,.09,.08,.13Z"/><path d="M29.05,47.29c-.26-.39-.5-.81-.72-1.22,0-.02-.02-.03-.03-.04-.02-.04-.04-.08-.08-.13,.02,.03,.03,.04,.05,.07,0,0,0,0,0,.02,.14,.22,.29,.44,.42,.66,.12,.21,.24,.42,.34,.64Z"/></g><path d="M41.51,24.32c.13,0,.25,.02,.37,.04h0c-.12-.03-.24-.04-.37-.04ZM15.94,15.96c.13-.12,.27-.22,.43-.29-.15,.07-.3,.16-.43,.29Zm12.34,30.02s0,0,0-.02c-.02-.03-.03-.04-.05-.07,.03,.04,.06,.08,.08,.13,0,0,0-.03-.02-.04Zm-3.99-4.16v.03h0s.02,.02,.02,.02c0-.02,0-.03,0-.05Zm-6.08-2.52h0c.09,.02,.18,.03,.28,.06-.09-.03-.18-.04-.28-.06Zm23.21-15.65c.14,.24,.3,.47,.46,.7h0c-.16-.23-.32-.46-.47-.7Zm-2.13-5.34c.03,.2,.08,.41,.13,.61,0,.03,.02,.08,.03,.12-.06-.24-.11-.49-.16-.73Z"/><path d="M66.96,24.36h0c.16-.23,.32-.46,.46-.7-.15,.24-.31,.47-.47,.7Zm-25.55-.71c.14,.24,.3,.47,.46,.7h0c-.16-.23-.32-.46-.47-.7Zm-2.13-5.34c.03,.2,.08,.41,.13,.61,0,.03,.02,.08,.03,.12-.06-.24-.11-.49-.16-.73Z"/><path d="M44.34,81.29c.08-.03,.16-.05,.24-.08,.09-.03,.18-.06,.28-.11-.17,.07-.34,.13-.52,.19Zm-1.91,.52c-.26,.05-.53,.09-.8,.13,.27-.03,.54-.08,.8-.13,0,0,.02,0,.03,0,.13-.03,.24-.05,.36-.08-.13,.03-.25,.06-.39,.08Zm-14.09-18.97s-.03,.04-.03,.07c.03-.03,.04-.05,.05-.08,.12-.18,.24-.35,.34-.53,.11-.18,.22-.38,.32-.57,.02-.03,.03-.05,.03-.08-.26,.39-.49,.78-.71,1.18Zm14.09,18.97c-.26,.05-.53,.09-.8,.13,.27-.03,.54-.08,.8-.13,0,0,.02,0,.03,0,.13-.03,.24-.05,.36-.08-.13,.03-.25,.06-.39,.08Zm-14.09-18.97s-.03,.04-.03,.07c.03-.03,.04-.05,.05-.08,.12-.18,.24-.35,.34-.53,.11-.18,.22-.38,.32-.57,.02-.03,.03-.05,.03-.08-.26,.39-.49,.78-.71,1.18Zm.35-.54c.11-.18,.22-.38,.32-.57,.02-.03,.03-.05,.03-.08-.11,.22-.23,.44-.35,.65Z"/><g><path d="M26.77,60.31c-.23,.44-.47,.86-.74,1.24,.22-.42,.46-.84,.74-1.24Z"/><path d="M29.05,61.65s-.02,.05-.03,.08c-.1,.19-.21,.39-.32,.57-.1,.18-.22,.35-.34,.53,0,.03-.03,.05-.05,.08,0-.03,.03-.04,.03-.07,.22-.4,.45-.8,.71-1.18Z"/></g><path d="M26.03,61.55c.27-.39,.51-.81,.74-1.24-.28,.4-.52,.82-.74,1.24Zm0,0c.27-.39,.51-.81,.74-1.24-.28,.4-.52,.82-.74,1.24Zm0,0c.27-.39,.51-.81,.74-1.24-.28,.4-.52,.82-.74,1.24ZM.03,53.69c0,.25,0,.5,0,.75,0,.29,0,.57,0,.84,0-.29,.1-.57,.28-.79H.3c-.18-.23-.28-.5-.28-.8Zm2.65,.75v-.68c-.02,.28-.11,.53-.27,.73,.16,.2,.25,.45,.27,.72,0,.03,0,.05,0,.08v-.05c0-.27,0-.53,0-.8Zm20.22,13.51c.16-.08,.32-.18,.48-.27,.08-.05,.16-.1,.24-.15-.24,.14-.47,.29-.71,.42Zm3.13-6.39c.27-.39,.51-.81,.74-1.24-.28,.4-.52,.82-.74,1.24Zm.74-12.92c-.21-.41-.45-.82-.71-1.2t-.02-.02c.1,.21,.21,.4,.33,.6,.15,.25,.31,.5,.47,.75-.03-.04-.05-.09-.08-.13Zm-.74,12.92c.27-.39,.51-.81,.74-1.24-.28,.4-.52,.82-.74,1.24Zm0,0c.27-.39,.51-.81,.74-1.24-.28,.4-.52,.82-.74,1.24Z"/><path d="M39.26,90.75h0c.02-.13,.04-.27,.08-.39-.03,.13-.06,.26-.08,.39Zm-23.27,2.19s-.02,0-.02,0c-.02,0-.03-.03-.04-.03h0s.08,.08,.11,.11c-.02-.02-.04-.04-.05-.07Zm25.16-8.3c.24-.02,.48-.03,.71-.06h0c-.24,.02-.49,.04-.72,.06Zm6.59-2s-.03,.02-.03,.02c-.18,.12-.37,.24-.55,.37,.2-.13,.4-.27,.61-.39,0,0-.02,0-.03,0Zm-5.32-.83h0s.02,0,.03,0h-.03Zm-2.19,2.87c.22,0,.44,0,.66-.02,.02,0,.03,0,.04,0-.24,.02-.46,.03-.7,.03Zm-6.24-1.16c.48,.19,.97,.37,1.45,.51-.5-.15-.97-.32-1.45-.51Zm-15.79-13.91h0c.08,0,.18-.03,.26-.05-.08,.03-.18,.04-.26,.05Z"/><path d="M80.53,62.87c-.23-.42-.46-.85-.75-1.24,0,0-.02-.02-.03-.03,.03,.06,.05,.12,.08,.17,.09,.19,.2,.38,.31,.56,.13,.24,.28,.46,.44,.69-.03-.05-.04-.1-.06-.14Zm0,0c-.23-.42-.46-.85-.75-1.24,0,0-.02-.02-.03-.03,.03,.06,.05,.12,.08,.17,.09,.19,.2,.38,.31,.56,.13,.24,.28,.46,.44,.69-.03-.05-.04-.1-.06-.14Zm0,0c-.23-.42-.46-.85-.75-1.24,0,0-.02-.02-.03-.03,.03,.06,.05,.12,.08,.17,.09,.19,.2,.38,.31,.56,.13,.24,.28,.46,.44,.69-.03-.05-.04-.1-.06-.14Zm0,0c-.23-.42-.46-.85-.75-1.24,0,0-.02-.02-.03-.03,.03,.06,.05,.12,.08,.17,.09,.19,.2,.38,.31,.56,.13,.24,.28,.46,.44,.69-.03-.05-.04-.1-.06-.14Zm0,0c-.23-.42-.46-.85-.75-1.24,0,0-.02-.02-.03-.03,.03,.06,.05,.12,.08,.17,.09,.19,.2,.38,.31,.56,.13,.24,.28,.46,.44,.69-.03-.05-.04-.1-.06-.14Zm0,0c-.23-.42-.46-.85-.75-1.24,0,0-.02-.02-.03-.03,.03,.06,.05,.12,.08,.17,.09,.19,.2,.38,.31,.56,.13,.24,.28,.46,.44,.69-.03-.05-.04-.1-.06-.14Zm0,0c-.23-.42-.46-.85-.75-1.24,0,0-.02-.02-.03-.03,.03,.06,.05,.12,.08,.17,.09,.19,.2,.38,.31,.56,.13,.24,.28,.46,.44,.69-.03-.05-.04-.1-.06-.14Zm0,0c-.23-.42-.46-.85-.75-1.24,0,0-.02-.02-.03-.03,.03,.06,.05,.12,.08,.17,.09,.19,.2,.38,.31,.56,.13,.24,.28,.46,.44,.69-.03-.05-.04-.1-.06-.14Zm2.29-1.27s0,0,.02,.02c0,0,0-.02,0-.02h-.02Zm-2.29,1.27c-.23-.42-.46-.85-.75-1.24,0,0-.02-.02-.03-.03,.03,.06,.05,.12,.08,.17,.09,.19,.2,.38,.31,.56,.13,.24,.28,.46,.44,.69-.03-.05-.04-.1-.06-.14Zm0,0c-.23-.42-.46-.85-.75-1.24,0,0-.02-.02-.03-.03,.03,.06,.05,.12,.08,.17,.09,.19,.2,.38,.31,.56,.13,.24,.28,.46,.44,.69-.03-.05-.04-.1-.06-.14Zm0,0c-.23-.42-.46-.85-.75-1.24,0,0-.02-.02-.03-.03,.03,.06,.05,.12,.08,.17,.09,.19,.2,.38,.31,.56,.13,.24,.28,.46,.44,.69-.03-.05-.04-.1-.06-.14Zm0,0c-.23-.42-.46-.85-.75-1.24,0,0-.02-.02-.03-.03,.03,.06,.05,.12,.08,.17,.09,.19,.2,.38,.31,.56,.13,.24,.28,.46,.44,.69-.03-.05-.04-.1-.06-.14Zm0,0c-.23-.42-.46-.85-.75-1.24,0,0-.02-.02-.03-.03,.03,.06,.05,.12,.08,.17,.09,.19,.2,.38,.31,.56,.13,.24,.28,.46,.44,.69-.03-.05-.04-.1-.06-.14Zm0,0c-.23-.42-.46-.85-.75-1.24,0,0-.02-.02-.03-.03,.03,.06,.05,.12,.08,.17,.09,.19,.2,.38,.31,.56,.13,.24,.28,.46,.44,.69-.03-.05-.04-.1-.06-.14Zm0,0c-.23-.42-.46-.85-.75-1.24,0,0-.02-.02-.03-.03,.03,.06,.05,.12,.08,.17,.09,.19,.2,.38,.31,.56,.13,.24,.28,.46,.44,.69-.03-.05-.04-.1-.06-.14Zm0,0c-.23-.42-.46-.85-.75-1.24,0,0-.02-.02-.03-.03,.03,.06,.05,.12,.08,.17,.09,.19,.2,.38,.31,.56,.13,.24,.28,.46,.44,.69-.03-.05-.04-.1-.06-.14Z"/><path d="M41.88,84.58c-.16,.23-.32,.46-.46,.7,.15-.24,.31-.47,.47-.7h0Zm4.51-4.22s.03,0,.04-.02c0,0,0,0,.02-.02-.02,.02-.04,.03-.06,.03Z"/><g><path d="M80.59,63.01c-.16-.23-.3-.45-.44-.69-.11-.18-.22-.37-.31-.56-.03-.05-.06-.11-.08-.17,0,.02,.02,.03,.03,.03,.29,.39,.52,.82,.75,1.24,.02,.04,.03,.09,.06,.14Z"/><path d="M82.06,60.28h0s-.03-.05-.03-.07c.02,.02,.03,.04,.04,.07Z"/><path d="M82.84,61.6s0,0,0,.02c0,0,0-.02-.02-.02-.27-.4-.51-.82-.72-1.25,.03,.02,.04,.04,.05,.07,.12,.18,.24,.35,.34,.54,.13,.21,.24,.43,.35,.65Z"/></g><path d="M66.48,89.35c.16,.46,.29,.93,.4,1.41-.1-.48-.24-.95-.4-1.41Zm3.01,.93c.03,.16,.07,.31,.09,.47h0c-.03-.16-.06-.31-.1-.47Zm23.42,2.67s-.03,.04-.05,.06c-.02,.02-.03,.03-.03,.04,.03-.04,.09-.09,.15-.15-.02,.02-.04,.03-.07,.05Zm-10.02-31.26s.03,.05,.04,.08c0,.02,.02,.03,.03,.04,.07,.08,.13,.17,.18,.24-.08-.12-.17-.24-.25-.36Zm1.66,5.42h0s.03,.03,.04,.03c-.02,0-.03-.03-.04-.03Zm-17.6,17.46s0,0,0,0c.03,0,.07,0,.1,0-.03,0-.08,0-.11-.02Z"/><path d="M93.1,16.09s-.07-.07-.11-.1c.06,.06,.11,.13,.16,.2,.03,.05,.06,.11,.09,.17-.03-.1-.08-.18-.14-.27Zm-.13-.13s.02,.02,.03,.03h0s-.02-.03-.03-.03Z"/></g><g><path d="M196.49,72.81v10.84h-45.18V25.29h44.1v10.84h-30.68v12.67h27.09v10.5h-27.09v13.5h31.76Z"/><path d="M260.76,25.29v58.35h-11.09l-29.09-35.43v35.43h-13.34V25.29h11.17l29.01,35.43V25.29h13.34Z"/><path d="M274.59,25.29h13.5v47.35h29.26v11h-42.76V25.29Z"/><path d="M324.94,25.29h13.5v58.35h-13.5V25.29Z"/><path d="M391.71,53.55h12.34v23.67c-6.42,4.83-15.25,7.42-23.59,7.42-18.34,0-31.84-12.59-31.84-30.18s13.5-30.18,32.09-30.18c10.25,0,18.76,3.5,24.42,10.09l-8.67,8c-4.25-4.5-9.17-6.59-15.09-6.59-11.34,0-19.09,7.59-19.09,18.67s7.75,18.67,18.92,18.67c3.67,0,7.09-.67,10.5-2.5v-17.09Z"/><path d="M470.06,25.29v58.35h-13.5v-23.92h-26.51v23.92h-13.5V25.29h13.5v23.01h26.51V25.29h13.5Z"/><path d="M495.99,36.3h-18.67v-11h50.85v11h-18.67v47.35h-13.5V36.3Z"/><path d="M580.59,72.81v10.84h-45.18V25.29h44.1v10.84h-30.68v12.67h27.09v10.5h-27.09v13.5h31.76Z"/><path d="M644.86,25.29v58.35h-11.09l-29.09-35.43v35.43h-13.34V25.29h11.17l29.01,35.43V25.29h13.34Z"/><path d="M725.47,84.65h-14.67l-.08-32.39-15.61,26.22h-7.22l-15.53-25.52v31.69h-14.67V24.29h12.74l21.27,35.31,20.94-35.31h12.65l.17,60.35Zm-12.67-2h10.67l-.16-56.35h-9.52l-22.07,37.21-22.41-37.21h-9.6v56.35h10.67V45.82l18.65,30.66h4.95l18.73-31.46,.09,37.63Z"/><path d="M752.81,84.65h-15.5V24.29h15.5v60.35Zm-13.5-2h11.5V26.29h-11.5v56.35Z"/><path d="M820.16,84.65h-12.56l-27.62-33.63v33.63h-15.34V24.29h12.64l27.54,33.63V24.29h15.34v60.35Zm-11.61-2h9.61V26.29h-11.34V63.52l-30.48-37.23h-9.7v56.35h11.34V45.42l30.57,37.22Z"/><path d="M859.59,84.65h-15.5V37.3h-18.67v-13h52.85v13h-18.67v47.35Zm-13.5-2h11.5V35.3h18.67v-9h-48.85v9h18.67v47.35Z"/></g></g></g></svg>