<?xml version="1.0" encoding="UTF-8"?><svg id="Capa_2" xmlns="http://www.w3.org/2000/svg" viewBox="0 0 152.9 153.69"><defs><style>.cls-1{fill:#009245;}.cls-2{fill:#2470bc;}.cls-3{fill:#16437a;}</style></defs><g id="Capa_1-2"><g><path class="cls-3" d="M152.9,58.04c-14.27,1.19-23.45-2.18-34.8-7.03-5.96-2.75-16.13-8.07-22.77-9.63-15.74-2.64-30.31,4.02-46.01,.78-4.23-.82-8.46-1.65-11.35-4.85,.28-5.48,7.04-6.35,11.37-7.35,9.88-1.56,18.86-2.73,28.49-3.17l-14.47-6.03c-15.42-3.96-28.07,6.03-41.35,12.42-.98,.49-1.61,.83-2.59,1.32-5.9,2.46-12.78,6.89-18.68,3.44-.98-.98-.98-2.95,0-4.43C15.98,17.3,34.17,5.49,56.29,1.56c22.62-3.93,44.74-.49,64.4,10.82,17.21,10.32,27.42,27.16,32.21,45.66Z"/><path class="cls-2" d="M0,95.65c14.27-1.19,23.45,2.18,34.8,7.03,5.96,2.75,16.13,8.07,22.77,9.63,15.74,2.64,30.31-4.02,46.01-.78,4.23,.82,8.46,1.65,11.35,4.85-.28,5.48-7.04,6.35-11.37,7.35-9.88,1.56-18.86,2.73-28.49,3.17l14.47,6.03c15.42,3.96,28.07-6.03,41.35-12.42,.98-.49,1.61-.83,2.59-1.32,5.9-2.46,12.78-6.89,18.68-3.44,.98,.98,.98,2.95,0,4.43-15.24,16.22-33.43,28.02-55.55,31.95-22.62,3.93-44.74,.49-64.4-10.82C15,130.98,4.78,114.14,0,95.65Z"/><path class="cls-1" d="M98.08,76.88c0,11.93-9.71,21.63-21.64,21.63s-21.63-9.7-21.63-21.63,9.7-21.64,21.63-21.64,21.64,9.71,21.64,21.64Z"/></g></g></svg>