<?xml version="1.0" encoding="UTF-8"?><svg id="Capa_2" xmlns="http://www.w3.org/2000/svg" viewBox="0 0 898.1 129.66"><g id="Capa_1-2"><g><g><g><path d="M110.32,18.76s-.02,0-.03,0c-.02-.02-.04-.03-.06-.04,.03,.01,.06,.02,.09,.05Z"/><path d="M110.6,18.95s-.11-.09-.17-.13c-.01,0-.01,0-.02-.02,.01,0,.02,0,.03,.01s.02,0,.03,.02c.02,.01,.03,.03,.05,.04t.02,.02s.04,.04,.06,.06Z"/><path d="M110.68,19.02h0s-.02-.01-.03-.02c.01,0,.02,0,.03,.02Z"/><path d="M110.98,19.47c-.04-.07-.07-.14-.11-.2-.06-.08-.12-.17-.19-.24,.05,.04,.09,.08,.13,.12,.07,.1,.14,.2,.17,.32Z"/></g><path d="M98.33,56.83c-.05,.11-.11,.21-.17,.31-.05,.09-.11,.18-.16,.26,.11-.19,.21-.38,.33-.57Z"/><g><path d="M31.95,58.04c-.19-.29-.38-.59-.56-.89-.14-.24-.27-.47-.39-.72t.02,.02c.3,.45,.59,.94,.84,1.43,.03,.05,.06,.11,.09,.16Z"/><path d="M34.57,56.28c-.31-.47-.6-.96-.86-1.45-.01-.02-.02-.03-.03-.05-.02-.05-.05-.1-.09-.15,.02,.03,.04,.05,.06,.08,0,.01,.01,.01,.01,.02,.17,.26,.34,.52,.5,.79,.14,.25,.28,.5,.41,.76Z"/></g><path d="M28.91,49.78v.04h-.01s.02,.02,.02,.02c-.01-.02-.01-.04-.01-.06Zm0,0v.04h-.01s.02,.02,.02,.02c-.01-.02-.01-.04-.01-.06Zm0,0v.04h-.01s.02,.02,.02,.02c-.01-.02-.01-.04-.01-.06Zm0,0v.04h-.01s.02,.02,.02,.02c-.01-.02-.01-.04-.01-.06Zm0,0v.04h-.01s.02,.02,.02,.02c-.01-.02-.01-.04-.01-.06Zm20.49-20.84c.15,0,.3,.02,.44,.05h0c-.14-.03-.29-.05-.44-.05Zm-15.74,25.79s-.01-.01-.01-.02c-.02-.03-.04-.05-.06-.08,.04,.05,.07,.1,.09,.15-.01-.01-.01-.03-.02-.05Zm-4.75-4.95v.04h-.01s.02,.02,.02,.02c-.01-.02-.01-.04-.01-.06Zm-7.24-3h0c.11,.02,.22,.04,.33,.07-.11-.03-.22-.05-.33-.07Zm7.24,3v.04h-.01s.02,.02,.02,.02c-.01-.02-.01-.04-.01-.06Zm0,0v.04h-.01s.02,.02,.02,.02c-.01-.02-.01-.04-.01-.06Zm0,0v.04h-.01s.02,.02,.02,.02c-.01-.02-.01-.04-.01-.06Zm0,0v.04h-.01s.02,.02,.02,.02c-.01-.02-.01-.04-.01-.06Z"/><g><path d="M31.86,71.78c-.27,.52-.56,1.02-.88,1.48,.26-.5,.55-1,.88-1.48Z"/><path d="M34.57,73.38s-.02,.06-.04,.09c-.12,.23-.25,.46-.38,.68-.12,.21-.26,.42-.4,.63-.01,.03-.03,.06-.06,.09,0-.03,.03-.05,.04-.08,.26-.48,.53-.95,.84-1.41Z"/></g><path d="M19.1,110.7s-.08-.08-.13-.12h0s.03,.02,.05,.03c0,0,.01,.01,.02,.01,.01,.03,.04,.06,.06,.08Z"/><g><path d="M95.92,75c-.19-.27-.36-.54-.52-.82-.13-.22-.26-.44-.37-.67-.04-.06-.07-.13-.1-.2,.01,.02,.02,.03,.03,.04,.34,.47,.62,.98,.89,1.48,.02,.05,.04,.11,.07,.17Z"/><path d="M97.67,71.75h-.01s-.03-.06-.04-.08c.02,.02,.04,.05,.05,.08Z"/><path d="M98.6,73.32s.01,.01,0,.02c-.01-.01-.01-.02-.02-.02-.32-.48-.61-.98-.86-1.49,.03,.02,.05,.05,.06,.08,.14,.21,.28,.42,.4,.64,.15,.25,.29,.51,.42,.77Z"/></g><g><path d="M79.12,106.34c.19,.55,.35,1.11,.48,1.68-.12-.57-.28-1.13-.48-1.68Zm3.58,1.11c.04,.19,.08,.37,.11,.56h0c-.03-.19-.07-.37-.12-.56Zm27.88,3.18s-.04,.05-.06,.07c-.02,.02-.03,.03-.04,.05,.04-.05,.11-.11,.18-.18-.02,.02-.05,.04-.08,.06Zm-11.92-37.2s.03,.06,.05,.09c.01,.02,.02,.03,.03,.05,.08,.1,.15,.2,.22,.29-.1-.14-.2-.28-.3-.43Zm1.98,6.45h0s.03,.03,.05,.04c-.02-.01-.04-.03-.05-.04Zm-20.95,20.78s0,0,0,.01c.04,0,.08,.01,.12,.01-.04-.01-.09-.01-.13-.02Z"/><path d="M110.81,19.15c.07,.1,.14,.2,.17,.32-.04-.07-.07-.14-.11-.2-.06-.08-.12-.17-.19-.24-.01-.01-.02-.02-.03-.03-.01-.02-.03-.04-.05-.05-.05-.05-.11-.09-.17-.13-.01,0-.01,0-.02-.02,.01,0,.02,0,.03,.01-6.07-6.05-13.12-10.73-20.8-13.9-7.77-3.22-16.16-4.91-24.82-4.91h-.07C47.45,.02,31.2,6.76,18.97,19c.15-.15,.33-.26,.51-.34-.19,.08-.36,.2-.51,.34C7.01,30.98,.29,46.87,.03,63.78v.12c0,.36,.12,.68,.33,.94H.36c-.21,.27-.33,.6-.33,.95v.21s0,.05,.01,.07c.31,16.66,6.92,32.31,18.61,44.17h.01c.15,.34,.42,.61,.75,.76,11.64,11.44,26.98,18.02,43.27,18.54,.04,0,.09,.01,.14,.01h.04c.65,.02,1.3,.03,1.95,.03s1.25-.01,1.84-.03h.05s.09,0,.13-.01c16.32-.49,31.68-7.05,43.34-18.5,.09-.08,.17-.16,.25-.25h.02s.03-.03,.04-.04c.01-.02,.02-.03,.04-.05,.02-.02,.04-.04,.06-.07,.03-.02,.06-.04,.08-.06,.02-.02,.04-.05,.06-.07,.11-.1,.21-.2,.3-.3,5.92-6.01,10.52-12.99,13.66-20.57,3.21-7.73,4.9-16.08,4.92-24.69v-.15c0-17.22-6.67-33.42-18.79-45.64Zm.33,4.97c7.31,8.32,12.18,18.29,14.22,29.03-.11-.14-.23-.27-.35-.4t-.02-.02c-.21-.24-.42-.48-.64-.7-.29-.29-.58-.57-.88-.84-.15-.13-.3-.27-.46-.39-.06-.05-.11-.1-.17-.14-.17-.15-.35-.29-.53-.42-.37-.28-.75-.55-1.15-.8-.18-.12-.37-.24-.56-.35-.21-.12-.42-.24-.64-.36-.55-.31-1.12-.58-1.71-.82-.25-.1-.5-.2-.75-.29-.21-.08-.42-.15-.63-.21-.08-.03-.16-.06-.25-.08-.25-.08-.5-.15-.76-.22-.02-.01-.04-.01-.07-.02-.23-.06-.46-.11-.69-.16-.13-.03-.27-.06-.41-.08-.18-.04-.36-.07-.54-.1-.13-.02-.26-.04-.39-.05-.02,0-.04,0-.06,0-.19-.03-.39-.05-.59-.07-.27-.03-.55-.06-.82-.07-.35-.02-.7-.03-1.05-.03h-.1V24.12Zm-.82-5.36s-.02,0-.03,0c-.02-.02-.04-.03-.06-.04,.03,.01,.06,.02,.09,.05Zm-15.06,15.58c-.72-.72-1.49-1.38-2.31-1.96-.23-.16-.46-.32-.7-.47-.03-.03-.07-.06-.11-.07-.15-.11-.3-.2-.45-.29-1.1-.67-2.26-1.21-3.46-1.63-.58-.21-1.16-.38-1.75-.52-.48-.12-.97-.22-1.46-.29-.19-.04-.4-.07-.6-.09-.02-.01-.04-.01-.06-.01-.07-.02-.14-.02-.21-.03-.15-.02-.3-.03-.45-.05-.15-.01-.3-.03-.45-.03-.05-.01-.1-.01-.15-.01-.16-.01-.33-.02-.49-.03-.21,0-.43-.01-.65-.01l-2.25,.14h-.01c.19-.27,.38-.55,.56-.83,.72-1.13,1.32-2.34,1.77-3.6,.06-.18,.12-.35,.18-.53,.01-.02,.01-.04,.02-.06,.06-.17,.11-.33,.16-.51,.01-.02,.01-.05,.02-.07,.01-.01,.01-.02,.01-.04,.06-.22,.12-.45,.18-.68,.02-.06,.03-.11,.04-.17,.06-.27,.12-.54,.17-.81h25.17v25.12c-.25,.04-.51,.09-.76,.15-.26,.05-.52,.12-.78,.19-.07,.02-.15,.04-.23,.06-.18,.05-.37,.11-.55,.17-.01,0-.03,.01-.04,.01-.03,.01-.05,.02-.08,.03-.14,.05-.29,.09-.42,.14h-.01c-.3,.11-.59,.22-.88,.33-.16,.07-.33,.14-.49,.22-.19,.08-.37,.17-.56,.26-.25,.12-.48,.24-.72,.37-.3,.16-.6,.34-.89,.52-.29,.18-.58,.37-.86,.57-.03,.02-.06,.04-.09,.06,.09-.75,.14-1.51,.14-2.28,0-5.01-1.96-9.72-5.5-13.27Zm-62.02,19.51c-.07-.16-.14-.32-.19-.48-.07-.15-.13-.31-.18-.46-.1-.27-.19-.54-.27-.81-.19-.59-.33-1.19-.43-1.79-.05-.3-.1-.6-.13-.9-.04-.3-.07-.61-.08-.91-.02-.29-.03-.59-.03-.89,0-.51,.02-1.01,.07-1.52,.05-.5,.12-1,.22-1.49,.1-.5,.22-.99,.37-1.47,.14-.48,.31-.96,.51-1.43,.14-.35,.3-.7,.47-1.04,.17-.34,.35-.68,.55-1.01,.26-.44,.55-.87,.86-1.29,.17-.24,.36-.47,.55-.7,.12-.14,.24-.29,.37-.43,.2-.22,.41-.44,.62-.66,2.95-2.95,6.87-4.57,11.04-4.57,2.7,0,5.36,.7,7.7,2.03,.11,.06,.22,.13,.33,.19,.03,.02,.06,.04,.09,.06,1.05,.64,2.03,1.41,2.91,2.29l3.95,3.95-22.07,22.08-3.95-3.95c-.71-.71-1.34-1.48-1.9-2.3-.01-.02-.03-.03-.04-.05,0-.01-.01-.01-.01-.02-.31-.47-.6-.96-.86-1.45-.01-.02-.02-.03-.03-.05-.02-.05-.05-.1-.09-.15,.02,.03,.04,.05,.06,.08-.15-.29-.29-.57-.41-.86Zm29.3,35.28h0s-3.95,3.95-3.95,3.95c-.88,.89-1.86,1.66-2.91,2.3-.03,.01-.05,.03-.08,.05h-.01c-.1,.06-.2,.12-.31,.18-.01,.01-.02,.01-.02,.02-.02,.01-.03,.02-.05,.02-.02,.01-.03,.02-.05,.03-.01,0-.01,.01-.02,.01,0,0-.01,0-.01,0,0,0,0,0,0,.01-.03,.02-.06,.03-.1,.05-.05,.03-.1,.06-.15,.08-.05,.03-.11,.06-.16,.08-.04,.03-.08,.05-.12,.06-.18,.1-.37,.19-.56,.27-.18,.09-.35,.16-.53,.23-.04,.02-.07,.03-.11,.04-.11,.06-.22,.09-.33,.13-.1,.04-.19,.07-.29,.1t-.02,0s-.03,.02-.04,.02c-.04,.02-.08,.03-.12,.04-.15,.06-.29,.1-.44,.14-.01,.01-.02,.01-.03,.01-.22,.08-.45,.14-.67,.19-.16,.05-.33,.09-.49,.11-.14,.04-.28,.07-.43,.1-.01,0-.02,0-.03,0-.31,.06-.63,.11-.95,.15-.96,.12-1.92,.15-2.88,.09-.31-.01-.62-.04-.92-.08-.28-.03-.56-.07-.83-.12-.06,0-.11-.01-.16-.03-.28-.04-.55-.1-.83-.17-.3-.07-.59-.15-.89-.24-.3-.09-.59-.19-.88-.3-.22-.07-.43-.16-.64-.25-.14-.05-.28-.11-.41-.18-1.1-.49-2.14-1.11-3.11-1.87-.21-.16-.41-.32-.61-.5-.15-.12-.29-.25-.44-.39-.14-.13-.29-.27-.43-.41-2.95-2.94-4.57-6.86-4.57-11.03,0-.54,.03-1.07,.09-1.6,.01-.13,.02-.26,.04-.39,.11-.91,.31-1.81,.59-2.68,.07-.25,.16-.51,.25-.76,.11-.31,.24-.61,.37-.91,.1-.23,.2-.46,.31-.68,.01-.02,.02-.03,.03-.05,.01-.01,.01-.02,.02-.03,.01-.03,.03-.05,.04-.08,0-.03,.03-.05,.04-.08,.26-.48,.53-.95,.84-1.41,.01,0,.01-.02,.02-.03h.01s.01-.03,.02-.04c.56-.82,1.19-1.6,1.9-2.3l3.95-3.95,22.07,22.07Zm-19.84-24.3l22.07-22.08h.01l22.07,22.08-22.07,22.08h-.01l-22.07-22.08Zm46.38,2.23l3.95,3.95c.69,.69,1.32,1.44,1.86,2.24,.01,.02,.02,.04,.04,.06,.01,.02,.02,.03,.03,.04,.34,.47,.62,.98,.89,1.48,.02,.05,.04,.11,.07,.17,.01,.03,.03,.05,.04,.08,.1,.19,.19,.38,.27,.58,.05,.1,.09,.2,.13,.3,.21,.48,.39,.96,.54,1.45,.03,.08,.05,.16,.07,.23,.02,.05,.03,.09,.04,.13,.04,.13,.07,.25,.1,.38,.01,.03,.02,.07,.02,.1,.04,.14,.08,.28,.1,.42,.06,.24,.11,.48,.15,.72,.04,.22,.07,.44,.1,.67,.02,.17,.04,.34,.05,.51,.11,1,.1,2,.01,2.99-.05,.5-.12,1-.22,1.5-.11,.55-.25,1.1-.43,1.64-.13,.43-.28,.84-.45,1.26-.76,1.87-1.91,3.62-3.41,5.12-2.95,2.95-6.87,4.58-11.04,4.58-.3,0-.6-.01-.89-.03-.1,0-.2,0-.3-.02-.23-.01-.46-.04-.68-.07-.08,0-.17-.01-.25-.03-.13,0-.26-.03-.39-.06-.21-.03-.41-.07-.61-.11-.04,0-.07-.01-.1-.02-.16-.03-.32-.07-.48-.11-.01,0-.02,0-.03-.01-.13-.03-.26-.06-.38-.1-.22-.05-.44-.12-.65-.19-.17-.05-.35-.11-.52-.18-.52-.18-1.04-.4-1.54-.64-.29-.14-.57-.29-.85-.44,0-.01,0-.01,0-.01-.01-.01-.02-.01-.03-.02-.12-.07-.23-.14-.37-.21-.01-.01-.02-.02-.03-.02-1.05-.64-2.04-1.42-2.93-2.31l-3.94-3.94,22.07-22.08Zm-22.08-26.54l3.95-3.95c.67-.67,1.39-1.27,2.16-1.8,.24-.17,.48-.33,.73-.48,.02-.01,.03-.02,.05-.03,.02,0,.04-.02,.06-.03,.1-.06,.19-.12,.29-.17,.01,0,.01-.01,.02-.02,.03-.01,.06-.03,.09-.05,.01-.01,.02-.01,.03-.02,.28-.15,.55-.3,.84-.43,.29-.15,.59-.28,.89-.39,.03-.02,.05-.03,.08-.04,.22-.09,.44-.17,.67-.24,.12-.05,.23-.09,.35-.12,.28-.1,.56-.18,.84-.25,.48-.13,.96-.23,1.45-.3,.21-.04,.43-.07,.65-.09,.3-.04,.6-.07,.91-.08,4.35-.26,8.74,1.31,11.97,4.54,2.95,2.95,4.57,6.87,4.57,11.04,0,.27-.01,.54-.02,.81-.01,.15-.02,.31-.04,.46,0,.13-.01,.25-.03,.38-.02,.18-.04,.37-.07,.55-.03,.25-.07,.5-.12,.75-.12,.64-.29,1.28-.5,1.91-.02,.08-.04,.16-.08,.24-.04,.17-.11,.33-.18,.5-.02,.06-.04,.12-.07,.19-.24,.6-.52,1.18-.83,1.75h0s-.03,.06-.04,.08t-.01,.02s-.03,.03-.03,.05h0s-.02,.04-.03,.06h-.01c-.07,.13-.15,.27-.24,.41-.03,.04-.06,.09-.08,.14-.02,.03-.04,.05-.05,.08-.62,.96-1.33,1.85-2.14,2.66l-3.95,3.95-22.08-22.08Zm38.56-21.98h-22.45c.01-.07,.01-.13,.01-.2,0-.35-.01-.7-.03-1.05s-.05-.69-.09-1.04c-.03-.27-.07-.55-.11-.81-.03-.2-.07-.4-.11-.6-.02-.1-.04-.2-.06-.29-.05-.24-.1-.47-.16-.71s-.13-.48-.2-.71c-.07-.26-.15-.51-.24-.76-.01-.04-.03-.08-.04-.12-.11-.3-.23-.6-.35-.9-.13-.31-.27-.61-.41-.91-.14-.3-.29-.6-.45-.89-.16-.29-.33-.57-.5-.85-.14-.22-.28-.45-.43-.66-.1-.15-.2-.29-.3-.43-.34-.47-.69-.91-1.07-1.34-.2-.23-.41-.46-.63-.68-.18-.2-.38-.39-.58-.57-.28-.27-.56-.52-.86-.77,10.76,2.06,20.74,6.94,29.06,14.29ZM64.75,3.15h.06c8.36,.02,15.15,6.84,15.15,15.19,0,.54-.02,1.08-.08,1.61-.24,2.33-1.04,4.57-2.28,6.52-.31,.49-.65,.96-1.01,1.41-.36,.45-.75,.88-1.17,1.29-.82,.81-1.73,1.52-2.72,2.13,0,0-.03,.01-.04,.02,0,.01-.01,.01-.01,.01-.01,.01-.03,.02-.04,.03s-.03,.02-.04,.02c-.07,.05-.14,.09-.22,.13-.03,.02-.07,.04-.1,.06-1.27,.77-2.46,1.71-3.53,2.77l-3.95,3.95-3.95-3.95c-1.07-1.07-2.26-2.01-3.55-2.79-.02-.01-.04-.02-.06-.03t-.01-.01c-.11-.06-.21-.12-.32-.18,0-.01-.03-.02-.04-.03-.01,0-.01-.01-.02-.01-3.99-2.46-6.66-6.7-7.15-11.34-.06-.53-.09-1.07-.09-1.61,0-8.36,6.81-15.18,15.17-15.19Zm-11.73,1.12c-.2,.17-.39,.34-.58,.51-.19,.17-.37,.34-.54,.52-.05,.04-.1,.09-.15,.14-.15,.15-.29,.3-.44,.46-.06,.06-.12,.13-.19,.21-.14,.16-.29,.32-.42,.49-.25,.29-.49,.6-.72,.91-.14,.19-.27,.37-.4,.56-.02,.04-.05,.08-.08,.12-.14,.22-.28,.44-.42,.66-.3,.5-.58,1.02-.84,1.55-.11,.23-.22,.46-.31,.69-.15,.33-.28,.67-.41,1.02-.05,.15-.11,.3-.16,.46-.07,.2-.13,.39-.18,.59-.07,.22-.13,.45-.19,.69-.06,.21-.11,.42-.15,.64-.04,.14-.06,.29-.09,.43-.03,.16-.06,.32-.08,.48-.05,.28-.09,.57-.12,.85-.04,.35-.07,.69-.09,1.04-.02,.35-.03,.7-.03,1.05v.2H24.08c8.28-7.32,18.22-12.2,28.94-14.27ZM21.67,21.69h25.07s.01,.07,.02,.11c.06,.29,.12,.58,.19,.87,.03,.13,.06,.26,.1,.39,.05,.18,.1,.35,.14,.52,.02,.06,.04,.11,.06,.17,0,.03,0,.05,.02,.08,.08,.24,.16,.49,.25,.73,.02,.06,.04,.12,.06,.17h.01c.04,.11,.08,.23,.13,.34,.01,.06,.04,.12,.07,.18,.03,.09,.07,.18,.11,.27,.02,.05,.04,.09,.06,.13,.07,.18,.15,.35,.24,.52,.02,.05,.04,.1,.06,.14,.08,.16,.16,.33,.25,.49,.05,.11,.11,.22,.17,.32,.03,.06,.06,.12,.1,.18,.06,.11,.12,.23,.19,.33,.1,.17,.2,.34,.31,.51,0,0,0,.01,.01,.01,.18,.28,.37,.56,.56,.83h-.01c-.14-.02-.29-.03-.44-.04h-.05s-.02-.01-.04-.01c-.2-.03-.4-.04-.61-.05-.04,0-.09,0-.13,0-.34-.02-.67-.03-1.01-.03-5.02,0-9.73,1.96-13.27,5.5-4.16,4.16-6.04,9.86-5.38,15.44,0,.02,0,.04,.01,.06,0,0-.01-.02-.02-.02-.02-.02-.05-.04-.08-.05-.13-.1-.26-.19-.39-.27-.19-.13-.39-.26-.6-.38-.06-.04-.13-.08-.2-.12-.12-.08-.26-.15-.39-.22-.21-.12-.42-.23-.63-.33-.71-.37-1.44-.68-2.2-.94-.09-.03-.17-.06-.26-.09-.24-.08-.48-.16-.72-.22-.15-.04-.31-.08-.46-.12-.06-.03-.12-.04-.18-.05-.15-.04-.31-.08-.46-.11-.11-.03-.22-.05-.33-.07-.11-.03-.22-.05-.33-.06V21.69Zm-3.16,2.41v22.38h-.16c-.34,0-.69,.01-1.03,.03-.56,.03-1.11,.09-1.66,.17-.22,.03-.45,.07-.67,.12-.08,0-.16,.02-.23,.04-.12,.01-.23,.04-.35,.07-.02,0-.04,0-.06,.02-.21,.04-.42,.09-.63,.15h-.01c-.2,.04-.39,.1-.59,.16-.01,0-.02,0-.03,.01-.56,.17-1.1,.36-1.63,.57-.22,.09-.43,.18-.64,.28-.24,.11-.47,.22-.71,.34-.76,.38-1.5,.81-2.19,1.3-.24,.16-.47,.33-.7,.51-.14,.11-.29,.22-.43,.34-.91,.73-1.75,1.55-2.5,2.45,2.06-10.71,6.93-20.66,14.22-28.94Zm0,81.38c-7.26-8.25-12.13-18.17-14.2-28.84,.09,.1,.17,.2,.27,.3,.19,.21,.38,.42,.57,.62,.2,.21,.4,.41,.61,.6,.41,.39,.84,.76,1.29,1.11,.19,.15,.39,.3,.59,.44,.04,.04,.08,.07,.13,.1,.17,.12,.35,.24,.53,.35,.34,.24,.7,.46,1.07,.66,.14,.08,.28,.16,.43,.23,.23,.13,.46,.24,.7,.35,.2,.1,.41,.2,.62,.28h0c.16,.07,.32,.14,.48,.2,.16,.06,.32,.12,.48,.18t.02,0c.33,.12,.66,.23,.99,.33,.2,.07,.41,.12,.62,.17,.11,.04,.22,.07,.34,.09,.19,.05,.39,.09,.59,.13,.08,.02,.17,.04,.25,.05,.22,.05,.44,.08,.66,.11,0,0,.03,0,.04,.01,.22,.04,.45,.07,.68,.09,.03,0,.07,.01,.1,.01,.29,.04,.59,.06,.9,.08h.03c.34,.02,.69,.03,1.04,.03h.16v22.31Zm.46,5.1h0s.03,.02,.05,.03c0,0,.01,.01,.02,.01,.01,.03,.04,.06,.06,.08-.04-.04-.08-.08-.13-.12Zm.96-30.64c-.52,.05-1.05,.08-1.58,.08-.3,0-.6-.01-.89-.03-.12-.01-.24-.01-.36-.02-.03,0-.07-.01-.1-.01-.06-.01-.12-.01-.18-.02-.5-.04-1-.12-1.48-.22-.19-.04-.38-.08-.57-.12-.43-.1-.84-.23-1.25-.37-.21-.06-.41-.14-.61-.22-.21-.08-.41-.16-.61-.25-.16-.06-.31-.13-.47-.21-.02-.01-.05-.02-.07-.03-.04-.02-.07-.04-.11-.06-.2-.09-.39-.19-.58-.3-.18-.09-.35-.19-.52-.3-.17-.1-.33-.2-.5-.31-.17-.11-.34-.22-.5-.34-.19-.13-.38-.27-.56-.42-.19-.14-.37-.29-.55-.45-.18-.15-.35-.31-.52-.47-.29-.27-.56-.55-.82-.84-.14-.14-.27-.29-.38-.44-.15-.17-.29-.34-.42-.52t-.02-.02s-.03-.04-.04-.06c-.13-.15-.24-.31-.35-.48-.18-.24-.34-.5-.5-.76-.12-.18-.23-.37-.33-.56-.11-.19-.21-.38-.3-.57-.2-.38-.37-.76-.52-1.16-.01-.01-.01-.03-.02-.04-.16-.39-.3-.79-.42-1.2-.13-.42-.24-.85-.32-1.28-.06-.24-.1-.48-.13-.72-.04-.23-.08-.47-.1-.71-.03-.23-.05-.47-.06-.7h0s-.01-.07-.01-.1c-.02-.32-.13-.62-.32-.86,.19-.24,.3-.54,.32-.87v-.08c.02-.25,.04-.5,.06-.75,.06-.47,.13-.93,.22-1.39,.06-.26,.12-.53,.19-.79,.12-.45,.26-.9,.42-1.33h0c.16-.44,.34-.87,.53-1.29,.27-.57,.58-1.12,.92-1.65,.08-.12,.16-.25,.24-.37,.18-.27,.37-.54,.58-.8,.14-.18,.29-.36,.44-.54,.2-.24,.41-.47,.63-.69,.16-.18,.33-.35,.5-.5,.22-.21,.44-.41,.66-.59,.17-.15,.33-.28,.51-.41,.26-.21,.53-.4,.8-.58,.28-.19,.56-.37,.85-.53,.38-.22,.77-.43,1.17-.61,.18-.09,.36-.17,.55-.24,.28-.13,.57-.24,.86-.34,.16-.06,.34-.12,.51-.17,.17-.06,.34-.11,.52-.15,.15-.05,.31-.09,.48-.12,.19-.05,.39-.1,.58-.13,.3-.06,.6-.11,.9-.15,.17-.03,.34-.05,.51-.06,.17-.02,.34-.03,.51-.04,.34-.03,.68-.04,1.03-.04,.53,0,1.06,.02,1.58,.08,.5,.05,.99,.13,1.48,.23,.16,.03,.32,.06,.48,.11,.33,.07,.66,.16,.98,.27,.31,.08,.61,.19,.91,.31,.26,.1,.52,.2,.78,.32,.27,.12,.52,.24,.78,.38,.21,.11,.43,.22,.64,.35,.13,.07,.26,.15,.38,.24,.2,.11,.4,.24,.59,.38,.35,.23,.69,.49,1.02,.77,.14,.11,.29,.23,.42,.36,.02,0,.04,.03,.06,.05,.11,.09,.21,.18,.31,.28,.17,.15,.33,.31,.48,.47,.18,.18,.34,.36,.5,.55,.15,.15,.28,.32,.41,.48,.27,.32,.52,.66,.75,1.01,.01,.01,.02,.01,.02,.02,.01,.03,.03,.05,.05,.08,0,.02,.01,.04,.03,.05t.02,.02c.3,.45,.59,.94,.84,1.43,.03,.05,.06,.11,.09,.16,.04,.05,.07,.11,.12,.16,.16,.24,.33,.47,.5,.7,.52,.7,1.1,1.36,1.72,1.98l3.95,3.95-3.95,3.95c-.82,.82-1.58,1.73-2.22,2.69-.05,.05-.08,.11-.12,.16-.03,.04-.05,.07-.07,.11,0,.02-.02,.03-.02,.04-.27,.52-.56,1.02-.88,1.48h0c-.03,.06-.07,.11-.1,.16h0c-.04,.06-.07,.1-.1,.14-.23,.33-.47,.64-.72,.94-.09,.11-.18,.22-.27,.32-.25,.28-.5,.56-.77,.82-.11,.12-.23,.23-.36,.34-.15,.14-.3,.28-.46,.41-.21,.18-.42,.36-.64,.52-.22,.17-.45,.33-.67,.48-.2,.14-.41,.28-.62,.4-.44,.27-.89,.52-1.36,.74-.11,.06-.23,.11-.35,.16-.19,.09-.39,.17-.59,.25-.26,.11-.51,.21-.77,.29-.27,.09-.55,.17-.82,.25-.26,.07-.52,.13-.79,.19-.54,.12-1.1,.21-1.66,.27Zm1.74,2.92c.1-.01,.21-.03,.31-.06t.02,0c.13-.02,.26-.05,.39-.08,.02,0,.04-.01,.06-.02,.16-.03,.32-.07,.48-.12,.32-.07,.63-.16,.94-.26,.23-.07,.46-.14,.68-.23,.23-.08,.46-.17,.69-.26,.18-.07,.36-.15,.54-.23,.24-.1,.47-.21,.7-.33,.02-.01,.05-.02,.07-.03,.24-.12,.47-.24,.7-.37,.29-.16,.57-.33,.85-.5,.28-.18,.55-.36,.82-.55-.08,.74-.13,1.48-.13,2.23,0,5.01,1.95,9.72,5.5,13.26,1.35,1.35,2.87,2.47,4.51,3.33,.54,.28,1.1,.54,1.66,.77,.57,.23,1.14,.43,1.73,.61,.22,.07,.44,.13,.66,.18,.2,.05,.4,.1,.6,.14,.33,.08,.66,.14,.99,.2,.03,.01,.07,.01,.1,.02,.33,.05,.66,.1,1,.13,.22,.02,.45,.05,.68,.06,.22,.02,.45,.03,.68,.04,.22,.01,.45,.01,.68,.01,.1,0,.21-.01,.31-.01,.28,0,.55-.01,.83-.03,.07,0,.14,0,.21-.02h.06c.28-.02,.57-.05,.86-.08h0c-.19,.28-.38,.56-.56,.84-.19,.3-.37,.6-.55,.91-.29,.54-.57,1.09-.81,1.66-.05,.1-.09,.21-.14,.33-.05,.13-.1,.26-.15,.39-.06,.13-.1,.27-.15,.4-.05,.14-.1,.27-.14,.41-.07,.21-.14,.42-.2,.64-.01,.02-.01,.04-.02,.06,0,.01,0,.02,0,.03-.05,.18-.1,.36-.14,.54-.03,.12-.06,.24-.08,.36-.03,.1-.06,.21-.07,.31-.04,.15-.07,.31-.09,.47H21.67v-25.15Zm2.54,28.3h22.22v.15c0,.34,.01,.67,.03,1,.01,.29,.03,.58,.06,.86,.02,.19,.04,.37,.07,.55,.01,.1,.02,.2,.04,.29,.01,.11,.03,.22,.05,.32,.02,.11,.04,.21,.06,.32,.04,.24,.09,.48,.14,.71,.05,.22,.1,.44,.17,.66,.02,.12,.05,.23,.09,.35,.02,.09,.05,.18,.08,.27,.06,.21,.13,.42,.2,.63,.11,.31,.22,.62,.35,.93,.01,.03,.02,.05,.03,.08,.11,.26,.22,.51,.33,.76,.02,.04,.04,.08,.06,.12,.09,.2,.19,.4,.3,.59,.07,.15,.15,.3,.23,.44,.24,.43,.49,.85,.77,1.26,.13,.2,.26,.4,.41,.59,.14,.2,.29,.4,.44,.59,.14,.19,.3,.38,.45,.56,.18,.22,.37,.43,.57,.64,.46,.5,.95,.97,1.47,1.42-10.58-2.08-20.43-6.9-28.62-14.09Zm51.89,10.28c-.17,.19-.35,.38-.53,.56-.31,.32-.64,.63-.99,.92-.02,.02-.05,.04-.07,.06-.04,.03-.07,.06-.11,.09-.02,.02-.04,.03-.06,.05-.09,.07-.18,.14-.27,.21-.18,.14-.36,.27-.54,.4-.16,.12-.32,.23-.49,.34-.01,.01-.02,.01-.03,.02-.29,.18-.58,.36-.88,.52-.3,.17-.6,.33-.92,.47-.2,.1-.4,.19-.61,.27-.79,.32-1.61,.59-2.45,.77-.16,.04-.31,.08-.46,.1-.03,.01-.07,.01-.1,.02-.05,.01-.11,.02-.16,.03-.14,.03-.28,.05-.42,.07-.14,.02-.27,.04-.41,.06h-.06c-.56,.02-1.12,.02-1.73,.02s-1.19-.01-1.78-.02h-.06s-.04,0-.06-.01h-.04c-.18-.03-.37-.05-.55-.09-.23-.03-.47-.08-.7-.13-.23-.04-.46-.09-.69-.16-.14-.03-.27-.07-.41-.12-.16-.03-.33-.09-.49-.15-.15-.04-.3-.09-.44-.15-.22-.07-.44-.16-.65-.25-.43-.17-.84-.36-1.24-.58-.2-.1-.4-.21-.6-.33-.16-.09-.32-.18-.47-.29-.13-.08-.25-.16-.37-.25-.12-.07-.23-.15-.34-.23-.08-.05-.16-.11-.23-.16-.23-.18-.46-.36-.68-.54-.23-.2-.47-.4-.69-.62-.22-.21-.44-.42-.64-.65-.16-.16-.3-.32-.44-.49-.24-.27-.47-.56-.68-.85-.1-.14-.2-.28-.3-.42-.06-.08-.11-.16-.16-.24-.03-.03-.05-.06-.07-.09-.02-.03-.04-.07-.06-.1-.44-.68-.82-1.41-1.15-2.17-.02-.04-.04-.09-.05-.13-.07-.15-.13-.3-.19-.46-.08-.2-.14-.4-.21-.6-.04-.1-.07-.2-.1-.3-.08-.24-.15-.49-.21-.74-.01-.02-.01-.04-.01-.06-.08-.28-.14-.57-.2-.86-.05-.27-.09-.53-.13-.81-.02-.14-.04-.28-.05-.42-.01-.12-.03-.25-.03-.37-.02-.16-.03-.33-.04-.49-.01-.26-.02-.52-.02-.78,0-.52,.03-1.05,.08-1.56,.03-.29,.07-.58,.12-.87,.04-.26,.09-.52,.14-.77,.13-.59,.3-1.18,.5-1.75,.06-.18,.12-.36,.2-.54,.06-.18,.14-.36,.22-.53,.08-.19,.16-.37,.25-.55,.12-.26,.26-.52,.4-.77,.13-.25,.28-.5,.43-.74,.16-.25,.32-.49,.49-.73,.33-.46,.69-.91,1.07-1.34,.79-.88,1.68-1.67,2.65-2.34,.22-.15,.44-.3,.66-.44,.01,0,.03,0,.04-.02,.01,0,.02-.01,.03-.01,.02-.02,.05-.03,.07-.05,.09-.04,.17-.09,.26-.15,.03-.02,.07-.04,.1-.06h.01c1.27-.78,2.46-1.71,3.52-2.78l3.95-3.94,3.95,3.94c1.07,1.07,2.25,2,3.53,2.78,0,0,0,0,0,.01,.04,.02,.08,.04,.12,.06,.08,.05,.15,.09,.23,.14,.01,0,.02,.01,.03,.01,.01,0,.03,.02,.04,.03s.02,.01,.03,.02c.25,.15,.5,.31,.74,.49,.47,.32,.93,.68,1.35,1.05,.16,.15,.32,.29,.48,.45,.06,.05,.13,.12,.18,.18,.04,.03,.07,.06,.1,.09,.1,.1,.2,.2,.28,.3,.03,.03,.05,.05,.07,.08,.16,.16,.31,.32,.43,.49,.16,.16,.29,.33,.41,.5,.21,.25,.4,.51,.57,.78,.19,.27,.36,.54,.52,.82,.12,.18,.23,.37,.32,.57,.19,.35,.37,.71,.52,1.07,.08,.17,.15,.34,.21,.51,.09,.2,.16,.4,.23,.6,.2,.55,.36,1.11,.48,1.68,.13,.57,.22,1.14,.28,1.73,.06,.51,.08,1.04,.08,1.56s-.02,1.01-.08,1.51c0,.19-.03,.37-.06,.56-.03,.21-.06,.41-.1,.62-.02,.14-.05,.28-.08,.42-.02,.13-.06,.27-.09,.41-.05,.23-.11,.45-.18,.67-.04,.17-.09,.34-.15,.51,0,.01-.01,.03-.01,.04-.05,.14-.1,.27-.15,.41-.04,.12-.08,.24-.13,.35-.07,.22-.16,.43-.26,.64-.09,.21-.18,.42-.29,.62-.1,.2-.2,.4-.32,.6-.1,.2-.22,.4-.34,.59-.2,.33-.42,.66-.66,.98-.15,.21-.31,.41-.47,.61-.16,.2-.32,.4-.49,.59Zm.6,3.83c.24-.21,.47-.42,.7-.64,.24-.23,.47-.46,.69-.69,.44-.46,.85-.94,1.25-1.45h0s.01-.03,.02-.03v-.02c.2-.26,.39-.51,.57-.78,.02-.02,.03-.03,.04-.05,.16-.25,.33-.51,.49-.77,.16-.27,.32-.55,.47-.83,.01,0,.02-.03,.03-.04,.13-.26,.27-.52,.39-.79,.11-.22,.21-.45,.31-.68,.06-.14,.12-.29,.18-.44,.22-.56,.42-1.13,.58-1.72,.09-.32,.18-.64,.25-.97,.07-.33,.14-.66,.19-.99,.05-.25,.08-.5,.11-.76,.02-.12,.03-.24,.05-.35,0-.03,.01-.06,.01-.09,.03-.28,.05-.55,.06-.83,.02-.34,.03-.69,.03-1.04v-.15h22.29c-8.21,7.21-18.09,12.04-28.71,14.11Zm31.28-17.26h-25.17c-.03-.19-.07-.37-.11-.56,0-.08-.03-.15-.05-.23-.03-.14-.06-.27-.1-.41-.04-.19-.09-.37-.15-.56-.09-.32-.19-.63-.3-.94-.07-.22-.15-.43-.24-.64-.08-.23-.17-.45-.27-.67-.11-.25-.22-.5-.35-.75-.13-.27-.28-.55-.43-.82-.05-.1-.11-.2-.17-.3-.29-.5-.6-.99-.94-1.46t0-.01s.09,.01,.13,.02c.14,.02,.27,.03,.41,.04,.02,.01,.04,.01,.06,0h.01s.01,.01,.02,0c.21,.02,.43,.04,.64,.05,.06,.01,.12,.02,.18,.01,.28,.02,.57,.03,.85,.03,5.01,0,9.73-1.95,13.27-5.5,4.15-4.14,6.03-9.85,5.38-15.42h0s.03,.02,.05,.03c.27,.19,.54,.37,.81,.54,.27,.17,.55,.34,.83,.49,.28,.16,.56,.3,.85,.44,.65,.32,1.32,.6,2,.83,.26,.1,.53,.18,.8,.26,.65,.2,1.32,.36,2,.48v25.05Zm3.16-2.56v-22.2h.1c.33,0,.65-.01,.97-.03,.18-.01,.36-.02,.54-.04,.45-.03,.9-.08,1.35-.16,.31-.05,.62-.1,.93-.17,.21-.04,.42-.09,.62-.14,.29-.07,.58-.15,.86-.24,.43-.12,.86-.27,1.28-.44,.19-.07,.37-.14,.56-.22,.52-.22,1.03-.46,1.52-.73,.22-.12,.45-.25,.67-.38,.25-.15,.5-.3,.74-.46,.25-.16,.48-.33,.72-.5,.23-.16,.45-.33,.66-.5,.17-.13,.33-.26,.49-.41,.13-.1,.25-.21,.36-.32,.09-.07,.18-.15,.26-.23,.17-.16,.34-.33,.51-.5,.18-.17,.35-.35,.52-.54,.17-.19,.34-.38,.51-.58-2.06,10.65-6.91,20.54-14.17,28.79Zm15.31-40.51c0,.35,0,.69-.04,1.03-.02,.3-.05,.59-.09,.88-.02,.18-.05,.37-.08,.54-.06,.37-.13,.74-.23,1.1-.03,.15-.06,.29-.11,.43-.07,.28-.15,.55-.25,.81-.08,.27-.18,.53-.29,.78-.06,.18-.13,.35-.21,.51-.1,.23-.2,.45-.32,.66-.06,.14-.13,.27-.2,.4-.11,.2-.22,.4-.34,.6-.18,.3-.37,.59-.57,.87-.51,.75-1.1,1.45-1.75,2.09-.68,.69-1.44,1.31-2.25,1.86-1.62,1.09-3.45,1.88-5.43,2.28-.49,.1-.99,.18-1.5,.23-.51,.05-1.03,.08-1.55,.08s-1.02-.02-1.52-.07h-.01c-.28-.03-.55-.06-.83-.11-.5-.08-1-.18-1.49-.31-.18-.04-.36-.09-.54-.15-.18-.05-.35-.11-.52-.16-.22-.08-.44-.16-.66-.25-.26-.1-.51-.2-.76-.32-.68-.31-1.33-.67-1.95-1.08-.2-.12-.4-.26-.6-.41-.02,0-.03-.02-.05-.04-.13-.09-.27-.19-.4-.3-.08-.05-.16-.11-.23-.18-.18-.14-.36-.29-.53-.45-.06-.05-.12-.1-.18-.16-.12-.1-.23-.21-.34-.32-.29-.28-.58-.58-.84-.89-.11-.13-.22-.25-.32-.38-.18-.21-.34-.43-.51-.65-.07-.09-.14-.19-.22-.29-.01-.02-.02-.03-.03-.05-.02-.03-.04-.06-.05-.09-.01-.01-.01-.02-.02-.03-.01-.02-.03-.04-.04-.06-.01-.01-.01-.02-.02-.02-.32-.48-.61-.98-.86-1.49h0s-.02-.05-.04-.07c0,0-.01,0-.01,0h-.01s-.03-.06-.04-.08c-.02-.03-.04-.07-.06-.1-.04-.05-.08-.11-.12-.16-.07-.12-.15-.24-.24-.35-.08-.12-.16-.23-.25-.34-.51-.69-1.08-1.34-1.69-1.94l-3.95-3.95,3.95-3.95c.95-.95,1.79-1.99,2.5-3.11,.04-.06,.08-.11,.12-.17,0-.01,.01-.01,.01-.02,.04-.06,.07-.12,.11-.18,.11-.19,.21-.38,.33-.57h.01s.03-.06,.05-.09c0-.01,0-.02,.01-.03s.02-.02,.02-.02t.01-.02c.06-.09,.12-.17,.18-.25,0-.01,.01-.01,.01-.02,.11-.17,.23-.34,.35-.51,.14-.19,.29-.38,.44-.57,.35-.44,.73-.86,1.13-1.26,.03-.03,.05-.05,.08-.07,.06-.06,.11-.11,.17-.17,.13-.12,.27-.25,.41-.37,.21-.2,.43-.38,.66-.55,.21-.17,.43-.33,.65-.49,.01-.01,.02-.01,.03-.02,.24-.17,.49-.33,.74-.48,.26-.16,.52-.31,.79-.46,.27-.14,.54-.28,.82-.4,.14-.07,.28-.13,.42-.18,.14-.06,.28-.12,.42-.17,.02,0,.05-.02,.07-.03,.18-.07,.35-.14,.53-.19,.13-.05,.25-.09,.38-.12,.17-.06,.35-.11,.53-.16,.18-.05,.36-.09,.54-.13,.25-.06,.5-.11,.75-.15,.05-.01,.09-.02,.14-.03,.1-.02,.2-.03,.31-.05,.24-.04,.48-.07,.73-.09,.5-.05,1.02-.08,1.53-.08,8.39,0,15.21,6.83,15.21,15.21v.06Z"/></g><g><path d="M95.92,75c-.19-.27-.36-.54-.52-.82-.13-.22-.26-.44-.37-.67-.04-.06-.07-.13-.1-.2,.01,.02,.02,.03,.03,.04,.34,.47,.62,.98,.89,1.48,.02,.05,.04,.11,.07,.17Z"/><path d="M97.67,71.75h-.01s-.03-.06-.04-.08c.02,.02,.04,.05,.05,.08Z"/><path d="M98.6,73.32s.01,.01,0,.02c-.01-.01-.01-.02-.02-.02-.32-.48-.61-.98-.86-1.49,.03,.02,.05,.05,.06,.08,.14,.21,.28,.42,.4,.64,.15,.25,.29,.51,.42,.77Z"/></g><path d="M98.33,56.83c-.05,.11-.11,.21-.17,.31-.05,.09-.11,.18-.16,.26,.11-.19,.21-.38,.33-.57Z"/><g><path d="M64.81,126.42c-.59,0-1.19-.01-1.78-.02h-.06s-.04,0-.06-.01h.09c.6,.02,1.21,.03,1.81,.03Z"/><path d="M66.65,129.55c-.62,.07-1.25,.11-1.88,.11s-1.28-.03-1.91-.11c.65,.02,1.3,.03,1.95,.03s1.25-.01,1.84-.03Z"/></g><g><path d="M.36,64.84H.36c-.21,.27-.33,.6-.33,.95-.02-.3-.03-.63-.03-.96s0-.62,.03-.93c0,.36,.12,.68,.33,.94Z"/><path d="M3.19,65.74v.06s-.01-.06-.01-.09c-.02-.32-.13-.62-.32-.86,.19-.24,.3-.54,.32-.87v.81c0,.32,0,.63,.01,.95Z"/></g><g><path d="M31.95,58.04c-.19-.29-.38-.59-.56-.89-.14-.24-.27-.47-.39-.72t.02,.02c.3,.45,.59,.94,.84,1.43,.03,.05,.06,.11,.09,.16Z"/><path d="M34.57,56.28c-.31-.47-.6-.96-.86-1.45-.01-.02-.02-.03-.03-.05-.02-.05-.05-.1-.09-.15,.02,.03,.04,.05,.06,.08,0,.01,.01,.01,.01,.02,.17,.26,.34,.52,.5,.79,.14,.25,.28,.5,.41,.76Z"/></g><g><path d="M31.86,71.78c-.27,.52-.56,1.02-.88,1.48,.26-.5,.55-1,.88-1.48Z"/><path d="M34.57,73.38s-.02,.06-.04,.09c-.12,.23-.25,.46-.38,.68-.12,.21-.26,.42-.4,.63-.01,.03-.03,.06-.06,.09,0-.03,.03-.05,.04-.08,.26-.48,.53-.95,.84-1.41Z"/></g><g><path d="M31.86,71.78c-.27,.52-.56,1.02-.88,1.48,.26-.5,.55-1,.88-1.48Z"/><path d="M34.57,73.38s-.02,.06-.04,.09c-.12,.23-.25,.46-.38,.68-.12,.21-.26,.42-.4,.63-.01,.03-.03,.06-.06,.09,0-.03,.03-.05,.04-.08,.26-.48,.53-.95,.84-1.41Z"/></g><path d="M98.33,56.83c-.05,.11-.11,.21-.17,.31-.05,.09-.11,.18-.16,.26,.11-.19,.21-.38,.33-.57Z"/><g><path d="M31.95,58.04c-.19-.29-.38-.59-.56-.89-.14-.24-.27-.47-.39-.72t.02,.02c.3,.45,.59,.94,.84,1.43,.03,.05,.06,.11,.09,.16Z"/><path d="M34.57,56.28c-.31-.47-.6-.96-.86-1.45-.01-.02-.02-.03-.03-.05-.02-.05-.05-.1-.09-.15,.02,.03,.04,.05,.06,.08,0,.01,.01,.01,.01,.02,.17,.26,.34,.52,.5,.79,.14,.25,.28,.5,.41,.76Z"/></g><g><path d="M95.92,75c-.19-.27-.36-.54-.52-.82-.13-.22-.26-.44-.37-.67-.04-.06-.07-.13-.1-.2,.01,.02,.02,.03,.03,.04,.34,.47,.62,.98,.89,1.48,.02,.05,.04,.11,.07,.17Z"/><path d="M97.67,71.75h-.01s-.03-.06-.04-.08c.02,.02,.04,.05,.05,.08Z"/><path d="M98.6,73.32s.01,.01,0,.02c-.01-.01-.01-.02-.02-.02-.32-.48-.61-.98-.86-1.49,.03,.02,.05,.05,.06,.08,.14,.21,.28,.42,.4,.64,.15,.25,.29,.51,.42,.77Z"/></g><path d="M98.18,72.55c-.12-.22-.26-.43-.4-.64-.01-.03-.03-.06-.06-.08,.25,.51,.54,1.01,.86,1.49,.01,0,.01,.01,.02,.02,.01-.01,.01-.02,0-.02-.13-.26-.27-.52-.42-.77Zm-.56-.88s.03,.05,.04,.08h.01s-.03-.06-.05-.08Zm.78-14.96s-.01,.02-.01,.03c.01-.02,.02-.03,.03-.05,0,0-.01,0-.02,.02Zm-.4,.69c.05-.08,.11-.17,.16-.26,.06-.1,.12-.2,.17-.31-.12,.19-.22,.38-.33,.57Zm.18,15.15c-.12-.22-.26-.43-.4-.64-.01-.03-.03-.06-.06-.08,.25,.51,.54,1.01,.86,1.49,.01,0,.01,.01,.02,.02,.01-.01,.01-.02,0-.02-.13-.26-.27-.52-.42-.77Zm-.56-.88s.03,.05,.04,.08h.01s-.03-.06-.05-.08Zm.78-14.96s-.01,.02-.01,.03c.01-.02,.02-.03,.03-.05,0,0-.01,0-.02,.02Zm-.4,.69c.05-.08,.11-.17,.16-.26,.06-.1,.12-.2,.17-.31-.12,.19-.22,.38-.33,.57Zm.18,15.15c-.12-.22-.26-.43-.4-.64-.01-.03-.03-.06-.06-.08,.25,.51,.54,1.01,.86,1.49,.01,0,.01,.01,.02,.02,.01-.01,.01-.02,0-.02-.13-.26-.27-.52-.42-.77Zm-.56-.88s.03,.05,.04,.08h.01s-.03-.06-.05-.08Zm.78-14.96s-.01,.02-.01,.03c.01-.02,.02-.03,.03-.05,0,0-.01,0-.02,.02Zm-.4,.69c.05-.08,.11-.17,.16-.26,.06-.1,.12-.2,.17-.31-.12,.19-.22,.38-.33,.57Zm.18,15.15c-.12-.22-.26-.43-.4-.64-.01-.03-.03-.06-.06-.08,.25,.51,.54,1.01,.86,1.49,.01,0,.01,.01,.02,.02,.01-.01,.01-.02,0-.02-.13-.26-.27-.52-.42-.77Zm-.56-.88s.03,.05,.04,.08h.01s-.03-.06-.05-.08Zm.78-14.96s-.01,.02-.01,.03c.01-.02,.02-.03,.03-.05,0,0-.01,0-.02,.02Zm-.4,.69c.05-.08,.11-.17,.16-.26,.06-.1,.12-.2,.17-.31-.12,.19-.22,.38-.33,.57Zm.18,15.15c-.12-.22-.26-.43-.4-.64-.01-.03-.03-.06-.06-.08,.25,.51,.54,1.01,.86,1.49,.01,0,.01,.01,.02,.02,.01-.01,.01-.02,0-.02-.13-.26-.27-.52-.42-.77Zm-.56-.88s.03,.05,.04,.08h.01s-.03-.06-.05-.08Zm.78-14.96s-.01,.02-.01,.03c.01-.02,.02-.03,.03-.05,0,0-.01,0-.02,.02Zm-.4,.69c.05-.08,.11-.17,.16-.26,.06-.1,.12-.2,.17-.31-.12,.19-.22,.38-.33,.57Zm.18,15.15c-.12-.22-.26-.43-.4-.64-.01-.03-.03-.06-.06-.08,.25,.51,.54,1.01,.86,1.49,.01,0,.01,.01,.02,.02,.01-.01,.01-.02,0-.02-.13-.26-.27-.52-.42-.77Zm-.56-.88s.03,.05,.04,.08h.01s-.03-.06-.05-.08Zm.78-14.96s-.01,.02-.01,.03c.01-.02,.02-.03,.03-.05,0,0-.01,0-.02,.02Zm-.4,.69c.05-.08,.11-.17,.16-.26,.06-.1,.12-.2,.17-.31-.12,.19-.22,.38-.33,.57Zm.18,15.15c-.12-.22-.26-.43-.4-.64-.01-.03-.03-.06-.06-.08,.25,.51,.54,1.01,.86,1.49,.01,0,.01,.01,.02,.02,.01-.01,.01-.02,0-.02-.13-.26-.27-.52-.42-.77Zm-.56-.88s.03,.05,.04,.08h.01s-.03-.06-.05-.08Zm.78-14.96s-.01,.02-.01,.03c.01-.02,.02-.03,.03-.05,0,0-.01,0-.02,.02Zm-.4,.69c.05-.08,.11-.17,.16-.26,.06-.1,.12-.2,.17-.31-.12,.19-.22,.38-.33,.57Zm.18,15.15c-.12-.22-.26-.43-.4-.64-.01-.03-.03-.06-.06-.08,.25,.51,.54,1.01,.86,1.49,.01,0,.01,.01,.02,.02,.01-.01,.01-.02,0-.02-.13-.26-.27-.52-.42-.77Zm-.56-.88s.03,.05,.04,.08h.01s-.03-.06-.05-.08Zm.78-14.96s-.01,.02-.01,.03c.01-.02,.02-.03,.03-.05,0,0-.01,0-.02,.02Zm-.4,.69c.05-.08,.11-.17,.16-.26,.06-.1,.12-.2,.17-.31-.12,.19-.22,.38-.33,.57Zm.18,15.15c-.12-.22-.26-.43-.4-.64-.01-.03-.03-.06-.06-.08,.25,.51,.54,1.01,.86,1.49,.01,0,.01,.01,.02,.02,.01-.01,.01-.02,0-.02-.13-.26-.27-.52-.42-.77Zm-.56-.88s.03,.05,.04,.08h.01s-.03-.06-.05-.08Zm.78-14.96s-.01,.02-.01,.03c.01-.02,.02-.03,.03-.05,0,0-.01,0-.02,.02Zm-.4,.69c.05-.08,.11-.17,.16-.26,.06-.1,.12-.2,.17-.31-.12,.19-.22,.38-.33,.57Zm.18,15.15c-.12-.22-.26-.43-.4-.64-.01-.03-.03-.06-.06-.08,.25,.51,.54,1.01,.86,1.49,.01,0,.01,.01,.02,.02,.01-.01,.01-.02,0-.02-.13-.26-.27-.52-.42-.77Zm.22-15.84s-.01,.02-.01,.03c.01-.02,.02-.03,.03-.05,0,0-.01,0-.02,.02Zm-.4,.69c.05-.08,.11-.17,.16-.26,.06-.1,.12-.2,.17-.31-.12,.19-.22,.38-.33,.57Zm-.38,14.27s.03,.05,.04,.08h.01s-.03-.06-.05-.08Zm.56,.88c-.12-.22-.26-.43-.4-.64-.01-.03-.03-.06-.06-.08,.25,.51,.54,1.01,.86,1.49,.01,0,.01,.01,.02,.02,.01-.01,.01-.02,0-.02-.13-.26-.27-.52-.42-.77Zm.22-15.84s-.01,.02-.01,.03c.01-.02,.02-.03,.03-.05,0,0-.01,0-.02,.02Zm-.4,.69c.05-.08,.11-.17,.16-.26,.06-.1,.12-.2,.17-.31-.12,.19-.22,.38-.33,.57Zm-.38,14.27s.03,.05,.04,.08h.01s-.03-.06-.05-.08Zm.56,.88c-.12-.22-.26-.43-.4-.64-.01-.03-.03-.06-.06-.08,.25,.51,.54,1.01,.86,1.49,.01,0,.01,.01,.02,.02,.01-.01,.01-.02,0-.02-.13-.26-.27-.52-.42-.77Zm.22-15.84s-.01,.02-.01,.03c.01-.02,.02-.03,.03-.05,0,0-.01,0-.02,.02Zm-.4,.69c.05-.08,.11-.17,.16-.26,.06-.1,.12-.2,.17-.31-.12,.19-.22,.38-.33,.57Zm-.38,14.27s.03,.05,.04,.08h.01s-.03-.06-.05-.08Zm.56,.88c-.12-.22-.26-.43-.4-.64-.01-.03-.03-.06-.06-.08,.25,.51,.54,1.01,.86,1.49,.01,0,.01,.01,.02,.02,.01-.01,.01-.02,0-.02-.13-.26-.27-.52-.42-.77Zm.22-15.84s-.01,.02-.01,.03c.01-.02,.02-.03,.03-.05,0,0-.01,0-.02,.02Zm-.4,.69c.05-.08,.11-.17,.16-.26,.06-.1,.12-.2,.17-.31-.12,.19-.22,.38-.33,.57Zm-.38,14.27s.03,.05,.04,.08h.01s-.03-.06-.05-.08Zm.56,.88c-.12-.22-.26-.43-.4-.64-.01-.03-.03-.06-.06-.08,.25,.51,.54,1.01,.86,1.49,.01,0,.01,.01,.02,.02,.01-.01,.01-.02,0-.02-.13-.26-.27-.52-.42-.77Zm.22-15.84s-.01,.02-.01,.03c.01-.02,.02-.03,.03-.05,0,0-.01,0-.02,.02Zm-.4,.69c.05-.08,.11-.17,.16-.26,.06-.1,.12-.2,.17-.31-.12,.19-.22,.38-.33,.57Zm-.38,14.27s.03,.05,.04,.08h.01s-.03-.06-.05-.08Zm.56,.88c-.12-.22-.26-.43-.4-.64-.01-.03-.03-.06-.06-.08,.25,.51,.54,1.01,.86,1.49,.01,0,.01,.01,.02,.02,.01-.01,.01-.02,0-.02-.13-.26-.27-.52-.42-.77Zm.22-15.84s-.01,.02-.01,.03c.01-.02,.02-.03,.03-.05,0,0-.01,0-.02,.02Zm-.4,.69c.05-.08,.11-.17,.16-.26,.06-.1,.12-.2,.17-.31-.12,.19-.22,.38-.33,.57Zm-.38,14.27s.03,.05,.04,.08h.01s-.03-.06-.05-.08Zm.56,.88c-.12-.22-.26-.43-.4-.64-.01-.03-.03-.06-.06-.08,.25,.51,.54,1.01,.86,1.49,.01,0,.01,.01,.02,.02,.01-.01,.01-.02,0-.02-.13-.26-.27-.52-.42-.77Zm.22-15.84s-.01,.02-.01,.03c.01-.02,.02-.03,.03-.05,0,0-.01,0-.02,.02Zm-.4,.69c.05-.08,.11-.17,.16-.26,.06-.1,.12-.2,.17-.31-.12,.19-.22,.38-.33,.57Zm-.38,14.27s.03,.05,.04,.08h.01s-.03-.06-.05-.08Zm.56,.88c-.12-.22-.26-.43-.4-.64-.01-.03-.03-.06-.06-.08,.25,.51,.54,1.01,.86,1.49,.01,0,.01,.01,.02,.02,.01-.01,.01-.02,0-.02-.13-.26-.27-.52-.42-.77Zm.22-15.84s-.01,.02-.01,.03c.01-.02,.02-.03,.03-.05,0,0-.01,0-.02,.02Zm-.4,.69c.05-.08,.11-.17,.16-.26,.06-.1,.12-.2,.17-.31-.12,.19-.22,.38-.33,.57Zm-.38,14.27s.03,.05,.04,.08h.01s-.03-.06-.05-.08Zm.56,.88c-.12-.22-.26-.43-.4-.64-.01-.03-.03-.06-.06-.08,.25,.51,.54,1.01,.86,1.49,.01,0,.01,.01,.02,.02,.01-.01,.01-.02,0-.02-.13-.26-.27-.52-.42-.77Zm.22-15.84s-.01,.02-.01,.03c.01-.02,.02-.03,.03-.05,0,0-.01,0-.02,.02Zm-.4,.69c.05-.08,.11-.17,.16-.26,.06-.1,.12-.2,.17-.31-.12,.19-.22,.38-.33,.57Zm-.38,14.27s.03,.05,.04,.08h.01s-.03-.06-.05-.08Zm.56,.88c-.12-.22-.26-.43-.4-.64-.01-.03-.03-.06-.06-.08,.25,.51,.54,1.01,.86,1.49,.01,0,.01,.01,.02,.02,.01-.01,.01-.02,0-.02-.13-.26-.27-.52-.42-.77Zm.22-15.84s-.01,.02-.01,.03c.01-.02,.02-.03,.03-.05,0,0-.01,0-.02,.02Zm-.4,.69c.05-.08,.11-.17,.16-.26,.06-.1,.12-.2,.17-.31-.12,.19-.22,.38-.33,.57Zm-.38,14.27s.03,.05,.04,.08h.01s-.03-.06-.05-.08Zm.56,.88c-.12-.22-.26-.43-.4-.64-.01-.03-.03-.06-.06-.08,.25,.51,.54,1.01,.86,1.49,.01,0,.01,.01,.02,.02,.01-.01,.01-.02,0-.02-.13-.26-.27-.52-.42-.77Zm.22-15.84s-.01,.02-.01,.03c.01-.02,.02-.03,.03-.05,0,0-.01,0-.02,.02Zm-.4,.69c.05-.08,.11-.17,.16-.26,.06-.1,.12-.2,.17-.31-.12,.19-.22,.38-.33,.57Zm-.38,14.27s.03,.05,.04,.08h.01s-.03-.06-.05-.08Zm.78-14.96s-.01,.02-.01,.03c.01-.02,.02-.03,.03-.05,0,0-.01,0-.02,.02Zm-.4,.69c.05-.08,.11-.17,.16-.26,.06-.1,.12-.2,.17-.31-.12,.19-.22,.38-.33,.57Zm.18,15.15c-.12-.22-.26-.43-.4-.64-.01-.03-.03-.06-.06-.08,.25,.51,.54,1.01,.86,1.49,.01,0,.01,.01,.02,.02,.01-.01,.01-.02,0-.02-.13-.26-.27-.52-.42-.77Zm-.56-.88s.03,.05,.04,.08h.01s-.03-.06-.05-.08Zm0,0s.03,.05,.04,.08h.01s-.03-.06-.05-.08Zm.38-14.27c.05-.08,.11-.17,.16-.26,.06-.1,.12-.2,.17-.31-.12,.19-.22,.38-.33,.57Zm.4-.69s-.01,.02-.01,.03c.01-.02,.02-.03,.03-.05,0,0-.01,0-.02,.02Zm-.22,15.84c-.12-.22-.26-.43-.4-.64-.01-.03-.03-.06-.06-.08,.25,.51,.54,1.01,.86,1.49,.01,0,.01,.01,.02,.02,.01-.01,.01-.02,0-.02-.13-.26-.27-.52-.42-.77Zm-.56-.88s.03,.05,.04,.08h.01s-.03-.06-.05-.08Zm.38-14.27c.05-.08,.11-.17,.16-.26,.06-.1,.12-.2,.17-.31-.12,.19-.22,.38-.33,.57Zm.4-.69s-.01,.02-.01,.03c.01-.02,.02-.03,.03-.05,0,0-.01,0-.02,.02Zm-.22,15.84c-.12-.22-.26-.43-.4-.64-.01-.03-.03-.06-.06-.08,.25,.51,.54,1.01,.86,1.49,.01,0,.01,.01,.02,.02,.01-.01,.01-.02,0-.02-.13-.26-.27-.52-.42-.77Zm-.56-.88s.03,.05,.04,.08h.01s-.03-.06-.05-.08Zm.38-14.27c.05-.08,.11-.17,.16-.26,.06-.1,.12-.2,.17-.31-.12,.19-.22,.38-.33,.57Zm.4-.69s-.01,.02-.01,.03c.01-.02,.02-.03,.03-.05,0,0-.01,0-.02,.02Zm-.22,15.84c-.12-.22-.26-.43-.4-.64-.01-.03-.03-.06-.06-.08,.25,.51,.54,1.01,.86,1.49,.01,0,.01,.01,.02,.02,.01-.01,.01-.02,0-.02-.13-.26-.27-.52-.42-.77Zm-.56-.88s.03,.05,.04,.08h.01s-.03-.06-.05-.08Zm.38-14.27c.05-.08,.11-.17,.16-.26,.06-.1,.12-.2,.17-.31-.12,.19-.22,.38-.33,.57Zm.4-.69s-.01,.02-.01,.03c.01-.02,.02-.03,.03-.05,0,0-.01,0-.02,.02Zm-.22,15.84c-.12-.22-.26-.43-.4-.64-.01-.03-.03-.06-.06-.08,.25,.51,.54,1.01,.86,1.49,.01,0,.01,.01,.02,.02,.01-.01,.01-.02,0-.02-.13-.26-.27-.52-.42-.77Zm-.56-.88s.03,.05,.04,.08h.01s-.03-.06-.05-.08Zm.38-14.27c.05-.08,.11-.17,.16-.26,.06-.1,.12-.2,.17-.31-.12,.19-.22,.38-.33,.57Zm.4-.69s-.01,.02-.01,.03c.01-.02,.02-.03,.03-.05,0,0-.01,0-.02,.02Zm-.22,15.84c-.12-.22-.26-.43-.4-.64-.01-.03-.03-.06-.06-.08,.25,.51,.54,1.01,.86,1.49,.01,0,.01,.01,.02,.02,.01-.01,.01-.02,0-.02-.13-.26-.27-.52-.42-.77Zm-.56-.88s.03,.05,.04,.08h.01s-.03-.06-.05-.08Zm.38-14.27c.05-.08,.11-.17,.16-.26,.06-.1,.12-.2,.17-.31-.12,.19-.22,.38-.33,.57Zm.4-.69s-.01,.02-.01,.03c.01-.02,.02-.03,.03-.05,0,0-.01,0-.02,.02Zm-.22,15.84c-.12-.22-.26-.43-.4-.64-.01-.03-.03-.06-.06-.08,.25,.51,.54,1.01,.86,1.49,.01,0,.01,.01,.02,.02,.01-.01,.01-.02,0-.02-.13-.26-.27-.52-.42-.77Zm-.56-.88s.03,.05,.04,.08h.01s-.03-.06-.05-.08Zm.38-14.27c.05-.08,.11-.17,.16-.26,.06-.1,.12-.2,.17-.31-.12,.19-.22,.38-.33,.57Zm.4-.69s-.01,.02-.01,.03c.01-.02,.02-.03,.03-.05,0,0-.01,0-.02,.02Zm-.22,15.84c-.12-.22-.26-.43-.4-.64-.01-.03-.03-.06-.06-.08,.25,.51,.54,1.01,.86,1.49,.01,0,.01,.01,.02,.02,.01-.01,.01-.02,0-.02-.13-.26-.27-.52-.42-.77Zm-.56-.88s.03,.05,.04,.08h.01s-.03-.06-.05-.08Zm.38-14.27c.05-.08,.11-.17,.16-.26,.06-.1,.12-.2,.17-.31-.12,.19-.22,.38-.33,.57Zm.4-.69s-.01,.02-.01,.03c.01-.02,.02-.03,.03-.05,0,0-.01,0-.02,.02Zm-.22,15.84c-.12-.22-.26-.43-.4-.64-.01-.03-.03-.06-.06-.08,.25,.51,.54,1.01,.86,1.49,.01,0,.01,.01,.02,.02,.01-.01,.01-.02,0-.02-.13-.26-.27-.52-.42-.77Zm-.56-.88s.03,.05,.04,.08h.01s-.03-.06-.05-.08Zm.38-14.27c.05-.08,.11-.17,.16-.26,.06-.1,.12-.2,.17-.31-.12,.19-.22,.38-.33,.57Zm.4-.69s-.01,.02-.01,.03c.01-.02,.02-.03,.03-.05,0,0-.01,0-.02,.02Zm-.22,15.84c-.12-.22-.26-.43-.4-.64-.01-.03-.03-.06-.06-.08,.25,.51,.54,1.01,.86,1.49,.01,0,.01,.01,.02,.02,.01-.01,.01-.02,0-.02-.13-.26-.27-.52-.42-.77Zm-.56-.88s.03,.05,.04,.08h.01s-.03-.06-.05-.08Zm.38-14.27c.05-.08,.11-.17,.16-.26,.06-.1,.12-.2,.17-.31-.12,.19-.22,.38-.33,.57Zm.4-.69s-.01,.02-.01,.03c.01-.02,.02-.03,.03-.05,0,0-.01,0-.02,.02Zm-.22,15.84c-.12-.22-.26-.43-.4-.64-.01-.03-.03-.06-.06-.08,.25,.51,.54,1.01,.86,1.49,.01,0,.01,.01,.02,.02,.01-.01,.01-.02,0-.02-.13-.26-.27-.52-.42-.77Zm-.56-.88s.03,.05,.04,.08h.01s-.03-.06-.05-.08Zm.38-14.27c.05-.08,.11-.17,.16-.26,.06-.1,.12-.2,.17-.31-.12,.19-.22,.38-.33,.57Zm.4-.69s-.01,.02-.01,.03c.01-.02,.02-.03,.03-.05,0,0-.01,0-.02,.02Zm-.22,15.84c-.12-.22-.26-.43-.4-.64-.01-.03-.03-.06-.06-.08,.25,.51,.54,1.01,.86,1.49,.01,0,.01,.01,.02,.02,.01-.01,.01-.02,0-.02-.13-.26-.27-.52-.42-.77Zm-.18-15.15c.05-.08,.11-.17,.16-.26,.06-.1,.12-.2,.17-.31-.12,.19-.22,.38-.33,.57Zm.4-.69s-.01,.02-.01,.03c.01-.02,.02-.03,.03-.05,0,0-.01,0-.02,.02Zm-.22,15.84c-.12-.22-.26-.43-.4-.64-.01-.03-.03-.06-.06-.08,.25,.51,.54,1.01,.86,1.49,.01,0,.01,.01,.02,.02,.01-.01,.01-.02,0-.02-.13-.26-.27-.52-.42-.77Zm-.56-.88s.03,.05,.04,.08h.01s-.03-.06-.05-.08Zm.38-14.27c.05-.08,.11-.17,.16-.26,.06-.1,.12-.2,.17-.31-.12,.19-.22,.38-.33,.57Zm.4-.69s-.01,.02-.01,.03c.01-.02,.02-.03,.03-.05,0,0-.01,0-.02,.02Zm-.22,15.84c-.12-.22-.26-.43-.4-.64-.01-.03-.03-.06-.06-.08,.25,.51,.54,1.01,.86,1.49,.01,0,.01,.01,.02,.02,.01-.01,.01-.02,0-.02-.13-.26-.27-.52-.42-.77Zm-.56-.88s.03,.05,.04,.08h.01s-.03-.06-.05-.08Zm.38-14.27c.05-.08,.11-.17,.16-.26,.06-.1,.12-.2,.17-.31-.12,.19-.22,.38-.33,.57Zm.4-.69s-.01,.02-.01,.03c.01-.02,.02-.03,.03-.05,0,0-.01,0-.02,.02Zm-.22,15.84c-.12-.22-.26-.43-.4-.64-.01-.03-.03-.06-.06-.08,.25,.51,.54,1.01,.86,1.49,.01,0,.01,.01,.02,.02,.01-.01,.01-.02,0-.02-.13-.26-.27-.52-.42-.77Zm-.56-.88s.03,.05,.04,.08h.01s-.03-.06-.05-.08Zm.38-14.27c.05-.08,.11-.17,.16-.26,.06-.1,.12-.2,.17-.31-.12,.19-.22,.38-.33,.57Zm.4-.69s-.01,.02-.01,.03c.01-.02,.02-.03,.03-.05,0,0-.01,0-.02,.02Zm-.22,15.84c-.12-.22-.26-.43-.4-.64-.01-.03-.03-.06-.06-.08,.25,.51,.54,1.01,.86,1.49,.01,0,.01,.01,.02,.02,.01-.01,.01-.02,0-.02-.13-.26-.27-.52-.42-.77Zm-.56-.88s.03,.05,.04,.08h.01s-.03-.06-.05-.08Zm.38-14.27c.05-.08,.11-.17,.16-.26,.06-.1,.12-.2,.17-.31-.12,.19-.22,.38-.33,.57Zm.4-.69s-.01,.02-.01,.03c.01-.02,.02-.03,.03-.05,0,0-.01,0-.02,.02Zm-.22,15.84c-.12-.22-.26-.43-.4-.64-.01-.03-.03-.06-.06-.08,.25,.51,.54,1.01,.86,1.49,.01,0,.01,.01,.02,.02,.01-.01,.01-.02,0-.02-.13-.26-.27-.52-.42-.77Zm-.56-.88s.03,.05,.04,.08h.01s-.03-.06-.05-.08Zm.38-14.27c.05-.08,.11-.17,.16-.26,.06-.1,.12-.2,.17-.31-.12,.19-.22,.38-.33,.57Zm.4-.69s-.01,.02-.01,.03c.01-.02,.02-.03,.03-.05,0,0-.01,0-.02,.02Zm-.22,15.84c-.12-.22-.26-.43-.4-.64-.01-.03-.03-.06-.06-.08,.25,.51,.54,1.01,.86,1.49,.01,0,.01,.01,.02,.02,.01-.01,.01-.02,0-.02-.13-.26-.27-.52-.42-.77Zm-.56-.88s.03,.05,.04,.08h.01s-.03-.06-.05-.08Zm.38-14.27c.05-.08,.11-.17,.16-.26,.06-.1,.12-.2,.17-.31-.12,.19-.22,.38-.33,.57Zm.4-.69s-.01,.02-.01,.03c.01-.02,.02-.03,.03-.05,0,0-.01,0-.02,.02Zm-.22,15.84c-.12-.22-.26-.43-.4-.64-.01-.03-.03-.06-.06-.08,.25,.51,.54,1.01,.86,1.49,.01,0,.01,.01,.02,.02,.01-.01,.01-.02,0-.02-.13-.26-.27-.52-.42-.77Zm-.56-.88s.03,.05,.04,.08h.01s-.03-.06-.05-.08Zm.38-14.27c.05-.08,.11-.17,.16-.26,.06-.1,.12-.2,.17-.31-.12,.19-.22,.38-.33,.57Zm.4-.69s-.01,.02-.01,.03c.01-.02,.02-.03,.03-.05,0,0-.01,0-.02,.02Zm-.22,15.84c-.12-.22-.26-.43-.4-.64-.01-.03-.03-.06-.06-.08,.25,.51,.54,1.01,.86,1.49,.01,0,.01,.01,.02,.02,.01-.01,.01-.02,0-.02-.13-.26-.27-.52-.42-.77Zm-.56-.88s.03,.05,.04,.08h.01s-.03-.06-.05-.08Zm.38-14.27c.05-.08,.11-.17,.16-.26,.06-.1,.12-.2,.17-.31-.12,.19-.22,.38-.33,.57Zm.4-.69s-.01,.02-.01,.03c.01-.02,.02-.03,.03-.05,0,0-.01,0-.02,.02Zm-.22,15.84c-.12-.22-.26-.43-.4-.64-.01-.03-.03-.06-.06-.08,.25,.51,.54,1.01,.86,1.49,.01,0,.01,.01,.02,.02,.01-.01,.01-.02,0-.02-.13-.26-.27-.52-.42-.77Zm-.56-.88s.03,.05,.04,.08h.01s-.03-.06-.05-.08Z"/><path d="M110.23,18.71s.04,.02,.06,.04c.01,0,.02,0,.03,0-.03-.03-.06-.04-.09-.05Z"/><path d="M110.23,18.71s.04,.02,.06,.04c.01,0,.02,0,.03,0-.03-.03-.06-.04-.09-.05Zm.31,.18s-.01-.01-.02-.02c-.02-.01-.03-.03-.05-.04-.01-.01-.02-.01-.03-.02s-.02-.01-.03-.01c.01,.01,.01,.02,.02,.02,.06,.04,.12,.08,.17,.13-.02-.02-.04-.04-.06-.06Zm-27.43-.35h.01v-.2c0,.07,0,.13-.01,.2Z"/><path d="M63,126.39h-.03c-.22-.02-.44-.05-.65-.09,.18,.04,.37,.06,.55,.09h.04s.04,.01,.06,.01h.06s-.02,0-.03-.01Z"/><g><path d="M18.97,19c.15-.14,.32-.26,.51-.34-.18,.08-.36,.19-.51,.34Z"/><path d="M110.23,18.71s.04,.02,.06,.04c.01,0,.02,0,.03,0-.03-.03-.06-.04-.09-.05Z"/></g><path d="M79.71,28.99l2.25-.14c-.75,0-1.5,.04-2.25,.14Z"/><path d="M98.33,56.83c-.05,.11-.11,.21-.17,.31-.05,.09-.11,.18-.16,.26,.11-.19,.21-.38,.33-.57Z"/><path d="M64.78,42.75h-.01l22.08,22.08-22.07-22.08Z"/><path d="M32.17,50.31c.1,.6,.24,1.2,.43,1.79-.18-.59-.33-1.19-.43-1.79Zm1.99,5.21c-.16-.27-.33-.53-.5-.79,0-.01-.01-.01-.01-.02-.02-.03-.04-.05-.06-.08,.04,.05,.07,.1,.09,.15,.01,.02,.02,.03,.03,.05,.26,.49,.55,.98,.86,1.45,0,.01,.01,.01,.01,.02,.01,.02,.03,.03,.04,.05-.14-.28-.3-.56-.46-.83Zm-1.99-5.21c.1,.6,.24,1.2,.43,1.79-.18-.59-.33-1.19-.43-1.79Zm0,0c.1,.6,.24,1.2,.43,1.79-.18-.59-.33-1.19-.43-1.79Z"/><g><path d="M31.95,58.04c-.19-.29-.38-.59-.56-.89-.14-.24-.27-.47-.39-.72t.02,.02c.3,.45,.59,.94,.84,1.43,.03,.05,.06,.11,.09,.16Z"/><path d="M34.57,56.28c-.31-.47-.6-.96-.86-1.45-.01-.02-.02-.03-.03-.05-.02-.05-.05-.1-.09-.15,.02,.03,.04,.05,.06,.08,0,.01,.01,.01,.01,.02,.17,.26,.34,.52,.5,.79,.14,.25,.28,.5,.41,.76Z"/></g><path d="M49.4,28.94c.15,0,.3,.02,.44,.05h0c-.14-.03-.29-.05-.44-.05Zm-30.43-9.94c.15-.14,.32-.26,.51-.34-.18,.08-.36,.19-.51,.34Zm14.69,35.73s-.01-.01-.01-.02c-.02-.03-.04-.05-.06-.08,.04,.05,.07,.1,.09,.15-.01-.01-.01-.03-.02-.05Zm-4.75-4.95v.04h-.01s.02,.02,.02,.02c-.01-.02-.01-.04-.01-.06Zm-7.24-3h0c.11,.02,.22,.04,.33,.07-.11-.03-.22-.05-.33-.07Zm27.62-18.63c.17,.28,.36,.56,.55,.83h.01c-.19-.27-.38-.55-.56-.83Zm-2.53-6.35c.04,.24,.09,.49,.15,.73,.01,.04,.02,.09,.04,.14-.07-.29-.13-.58-.19-.87Z"/><path d="M79.7,28.99h.01c.19-.27,.38-.55,.55-.83-.18,.28-.37,.56-.56,.83Zm-30.41-.84c.17,.28,.36,.56,.55,.83h.01c-.19-.27-.38-.55-.56-.83Zm-2.53-6.35c.04,.24,.09,.49,.15,.73,.01,.04,.02,.09,.04,.14-.07-.29-.13-.58-.19-.87Z"/><path d="M52.77,96.75c.1-.03,.19-.06,.29-.1,.11-.04,.22-.07,.33-.13-.2,.08-.41,.15-.62,.23Zm-2.27,.62c-.31,.06-.63,.11-.95,.16,.32-.04,.64-.09,.95-.15,0,0,.02,0,.03,0,.15-.03,.29-.06,.43-.1-.15,.04-.3,.07-.46,.1Zm-16.77-22.58s-.03,.05-.04,.08c.03-.03,.05-.06,.06-.09,.14-.21,.28-.42,.4-.63,.13-.22,.26-.45,.38-.68,.02-.03,.03-.06,.04-.09-.31,.46-.58,.93-.84,1.41Zm16.77,22.58c-.31,.06-.63,.11-.95,.16,.32-.04,.64-.09,.95-.15,0,0,.02,0,.03,0,.15-.03,.29-.06,.43-.1-.15,.04-.3,.07-.46,.1Zm-16.77-22.58s-.03,.05-.04,.08c.03-.03,.05-.06,.06-.09,.14-.21,.28-.42,.4-.63,.13-.22,.26-.45,.38-.68,.02-.03,.03-.06,.04-.09-.31,.46-.58,.93-.84,1.41Zm.42-.64c.13-.22,.26-.45,.38-.68,.02-.03,.03-.06,.04-.09-.13,.26-.27,.52-.42,.77Z"/><g><path d="M31.86,71.78c-.27,.52-.56,1.02-.88,1.48,.26-.5,.55-1,.88-1.48Z"/><path d="M34.57,73.38s-.02,.06-.04,.09c-.12,.23-.25,.46-.38,.68-.12,.21-.26,.42-.4,.63-.01,.03-.03,.06-.06,.09,0-.03,.03-.05,.04-.08,.26-.48,.53-.95,.84-1.41Z"/></g><path d="M30.98,73.26c.32-.46,.61-.96,.88-1.48-.33,.48-.62,.98-.88,1.48Zm0,0c.32-.46,.61-.96,.88-1.48-.33,.48-.62,.98-.88,1.48Zm0,0c.32-.46,.61-.96,.88-1.48-.33,.48-.62,.98-.88,1.48ZM.03,63.9c0,.3-.01,.59-.01,.89,0,.34,.01,.68,.01,1,0-.35,.12-.68,.33-.94H.36c-.21-.27-.33-.59-.33-.95Zm3.15,.89v-.81c-.02,.33-.13,.63-.32,.87,.19,.24,.3,.54,.32,.86,0,.03,0,.06,.01,.09v-.06c-.01-.32-.01-.63-.01-.95Zm24.07,16.08c.19-.1,.38-.21,.57-.32,.1-.06,.19-.12,.28-.18-.28,.17-.56,.34-.85,.5Zm3.73-7.61c.32-.46,.61-.96,.88-1.48-.33,.48-.62,.98-.88,1.48Zm.88-15.38c-.25-.49-.54-.98-.84-1.43t-.02-.02c.12,.25,.25,.48,.39,.72,.18,.3,.37,.6,.56,.89-.03-.05-.06-.11-.09-.16Zm-.88,15.38c.32-.46,.61-.96,.88-1.48-.33,.48-.62,.98-.88,1.48Zm0,0c.32-.46,.61-.96,.88-1.48-.33,.48-.62,.98-.88,1.48Z"/><path d="M46.73,108.01h.01c.02-.16,.05-.32,.09-.47-.04,.15-.07,.31-.1,.47Zm-27.69,2.61s-.02-.01-.02-.01c-.02-.01-.04-.03-.05-.04h0c.05,.05,.09,.09,.13,.13-.02-.02-.05-.05-.06-.08Zm29.95-9.88c.28-.02,.57-.03,.85-.07h.01c-.29,.02-.58,.05-.86,.07Zm7.84-2.38s-.03,.02-.04,.02c-.22,.14-.44,.29-.66,.44,.24-.16,.48-.32,.73-.47-.01,0-.02,.01-.03,.01Zm-6.33-.99h0s.02,0,.03,0h-.03Zm-2.61,3.42c.26,0,.52-.01,.78-.02,.02,0,.03,0,.05-.01-.28,.02-.55,.03-.83,.03Zm-7.43-1.38c.57,.23,1.15,.44,1.73,.61-.59-.18-1.16-.38-1.73-.61Zm-18.79-16.55h0c.1-.01,.21-.03,.31-.06-.1,.03-.21,.05-.31,.06Z"/><path d="M95.85,74.83c-.27-.5-.55-1.01-.89-1.48-.01-.01-.02-.02-.03-.04,.03,.07,.06,.14,.1,.2,.11,.23,.24,.45,.37,.67,.16,.28,.33,.55,.52,.82-.03-.06-.05-.12-.07-.17Zm0,0c-.27-.5-.55-1.01-.89-1.48-.01-.01-.02-.02-.03-.04,.03,.07,.06,.14,.1,.2,.11,.23,.24,.45,.37,.67,.16,.28,.33,.55,.52,.82-.03-.06-.05-.12-.07-.17Zm0,0c-.27-.5-.55-1.01-.89-1.48-.01-.01-.02-.02-.03-.04,.03,.07,.06,.14,.1,.2,.11,.23,.24,.45,.37,.67,.16,.28,.33,.55,.52,.82-.03-.06-.05-.12-.07-.17Zm0,0c-.27-.5-.55-1.01-.89-1.48-.01-.01-.02-.02-.03-.04,.03,.07,.06,.14,.1,.2,.11,.23,.24,.45,.37,.67,.16,.28,.33,.55,.52,.82-.03-.06-.05-.12-.07-.17Zm0,0c-.27-.5-.55-1.01-.89-1.48-.01-.01-.02-.02-.03-.04,.03,.07,.06,.14,.1,.2,.11,.23,.24,.45,.37,.67,.16,.28,.33,.55,.52,.82-.03-.06-.05-.12-.07-.17Zm0,0c-.27-.5-.55-1.01-.89-1.48-.01-.01-.02-.02-.03-.04,.03,.07,.06,.14,.1,.2,.11,.23,.24,.45,.37,.67,.16,.28,.33,.55,.52,.82-.03-.06-.05-.12-.07-.17Zm0,0c-.27-.5-.55-1.01-.89-1.48-.01-.01-.02-.02-.03-.04,.03,.07,.06,.14,.1,.2,.11,.23,.24,.45,.37,.67,.16,.28,.33,.55,.52,.82-.03-.06-.05-.12-.07-.17Zm0,0c-.27-.5-.55-1.01-.89-1.48-.01-.01-.02-.02-.03-.04,.03,.07,.06,.14,.1,.2,.11,.23,.24,.45,.37,.67,.16,.28,.33,.55,.52,.82-.03-.06-.05-.12-.07-.17Zm2.73-1.51s.01,.01,.02,.02c.01-.01,.01-.02,0-.02h-.02Zm-2.73,1.51c-.27-.5-.55-1.01-.89-1.48-.01-.01-.02-.02-.03-.04,.03,.07,.06,.14,.1,.2,.11,.23,.24,.45,.37,.67,.16,.28,.33,.55,.52,.82-.03-.06-.05-.12-.07-.17Zm0,0c-.27-.5-.55-1.01-.89-1.48-.01-.01-.02-.02-.03-.04,.03,.07,.06,.14,.1,.2,.11,.23,.24,.45,.37,.67,.16,.28,.33,.55,.52,.82-.03-.06-.05-.12-.07-.17Zm0,0c-.27-.5-.55-1.01-.89-1.48-.01-.01-.02-.02-.03-.04,.03,.07,.06,.14,.1,.2,.11,.23,.24,.45,.37,.67,.16,.28,.33,.55,.52,.82-.03-.06-.05-.12-.07-.17Zm0,0c-.27-.5-.55-1.01-.89-1.48-.01-.01-.02-.02-.03-.04,.03,.07,.06,.14,.1,.2,.11,.23,.24,.45,.37,.67,.16,.28,.33,.55,.52,.82-.03-.06-.05-.12-.07-.17Zm0,0c-.27-.5-.55-1.01-.89-1.48-.01-.01-.02-.02-.03-.04,.03,.07,.06,.14,.1,.2,.11,.23,.24,.45,.37,.67,.16,.28,.33,.55,.52,.82-.03-.06-.05-.12-.07-.17Zm0,0c-.27-.5-.55-1.01-.89-1.48-.01-.01-.02-.02-.03-.04,.03,.07,.06,.14,.1,.2,.11,.23,.24,.45,.37,.67,.16,.28,.33,.55,.52,.82-.03-.06-.05-.12-.07-.17Zm0,0c-.27-.5-.55-1.01-.89-1.48-.01-.01-.02-.02-.03-.04,.03,.07,.06,.14,.1,.2,.11,.23,.24,.45,.37,.67,.16,.28,.33,.55,.52,.82-.03-.06-.05-.12-.07-.17Zm0,0c-.27-.5-.55-1.01-.89-1.48-.01-.01-.02-.02-.03-.04,.03,.07,.06,.14,.1,.2,.11,.23,.24,.45,.37,.67,.16,.28,.33,.55,.52,.82-.03-.06-.05-.12-.07-.17Z"/><path d="M49.84,100.67c-.19,.27-.38,.55-.55,.83,.18-.28,.37-.56,.56-.83h-.01Zm5.37-5.02s.03-.01,.05-.02c0,0,.01,0,.02-.02-.02,.02-.05,.03-.07,.04Z"/><g><path d="M95.92,75c-.19-.27-.36-.54-.52-.82-.13-.22-.26-.44-.37-.67-.04-.06-.07-.13-.1-.2,.01,.02,.02,.03,.03,.04,.34,.47,.62,.98,.89,1.48,.02,.05,.04,.11,.07,.17Z"/><path d="M97.67,71.75h-.01s-.03-.06-.04-.08c.02,.02,.04,.05,.05,.08Z"/><path d="M98.6,73.32s.01,.01,0,.02c-.01-.01-.01-.02-.02-.02-.32-.48-.61-.98-.86-1.49,.03,.02,.05,.05,.06,.08,.14,.21,.28,.42,.4,.64,.15,.25,.29,.51,.42,.77Z"/></g><path d="M79.12,106.34c.19,.55,.35,1.11,.48,1.68-.12-.57-.28-1.13-.48-1.68Zm3.58,1.11c.04,.19,.08,.37,.11,.56h0c-.03-.19-.07-.37-.12-.56Zm27.88,3.18s-.04,.05-.06,.07c-.02,.02-.03,.03-.04,.05,.04-.05,.11-.11,.18-.18-.02,.02-.05,.04-.08,.06Zm-11.92-37.2s.03,.06,.05,.09c.01,.02,.02,.03,.03,.05,.08,.1,.15,.2,.22,.29-.1-.14-.2-.28-.3-.43Zm1.98,6.45h0s.03,.03,.05,.04c-.02-.01-.04-.03-.05-.04Zm-20.95,20.78s0,0,0,.01c.04,0,.08,.01,.12,.01-.04-.01-.09-.01-.13-.02Z"/><path d="M110.81,19.15s-.08-.08-.13-.12c.07,.07,.13,.16,.19,.24,.04,.06,.07,.13,.11,.2-.03-.12-.1-.22-.17-.32Zm-.16-.15s.02,.02,.03,.03h0s-.02-.03-.03-.03Z"/></g><g><path d="M187.43,83.26v-13.57h27.23v-10.56h-27.23v-12.73h30.83v-10.89h-44.31v58.64h45.4v-10.89h-31.92Z"/><path d="M270.54,35.51v35.6l-29.16-35.6h-11.22v58.64h13.4V58.54l29.24,35.61h11.14V35.51h-13.4Z"/><path d="M311.42,83.09V35.51h-13.57v58.64h42.98v-11.06h-29.41Z"/><path d="M348.45,35.51v58.64h13.57V35.51h-13.57Z"/><path d="M415.55,81.08c-3.43,1.84-6.87,2.51-10.55,2.51-11.23,0-19.02-7.79-19.02-18.76s7.79-18.77,19.19-18.77c5.94,0,10.89,2.1,15.16,6.62l8.71-8.04c-5.7-6.62-14.24-10.14-24.54-10.14-18.69,0-32.26,12.65-32.26,30.33s13.57,30.32,32,30.32c8.38,0,17.26-2.59,23.71-7.45v-23.79h-12.4v17.17Z"/><path d="M480.73,35.51v23.12h-26.64v-23.12h-13.57v58.64h13.57v-24.05h26.64v24.05h13.57V35.51h-13.57Z"/><path d="M501.6,35.51v11.05h18.76v47.59h13.57V46.56h18.77v-11.05h-51.1Z"/><path d="M573.47,83.26v-13.57h27.23v-10.56h-27.23v-12.73h30.83v-10.89h-44.31v58.64h45.4v-10.89h-31.92Z"/><path d="M656.58,35.51v35.6l-29.15-35.6h-11.23v58.64h13.4V58.54l29.24,35.61h11.14V35.51h-13.4Z"/><path d="M742.28,35.51l-25.21,43.47-25.47-43.47h-5.11v58.64h5.95V47.49l23.03,39.2h2.94l23.03-39.45v46.91h5.95V35.51h-5.11Z"/><path d="M766.5,35.51v58.64h6.2V35.51h-6.2Z"/><path d="M834.69,35.51v47.58l-37.78-47.58h-5.12v58.64h6.2V46.56l37.7,47.59h5.11V35.51h-6.11Z"/><path d="M850.69,35.51v5.36h20.61v53.28h6.2V40.87h20.6v-5.36h-47.41Z"/></g></g></g></svg>